<?xml version="1.0" encoding="UTF-8" standalone="no"?>
<svg
   xmlns:dc="http://purl.org/dc/elements/1.1/"
   xmlns:cc="http://creativecommons.org/ns#"
   xmlns:rdf="http://www.w3.org/1999/02/22-rdf-syntax-ns#"
   xmlns:svg="http://www.w3.org/2000/svg"
   xmlns="http://www.w3.org/2000/svg"
   xmlns:sodipodi="http://sodipodi.sourceforge.net/DTD/sodipodi-0.dtd"
   xmlns:inkscape="http://www.inkscape.org/namespaces/inkscape"
   width="35mm"
   height="30.566mm"
   viewBox="0 0 35 30.566"
   version="1.1"
   id="svg8"
   inkscape:version="1.0.1 (3bc2e813f5, 2020-09-07)"
   sodipodi:docname="bemdoc-gen.svg">
  <defs
     id="defs2" />
  <sodipodi:namedview
     id="base"
     pagecolor="#ffffff"
     bordercolor="#666666"
     borderopacity="1.0"
     inkscape:pageopacity="0.0"
     inkscape:pageshadow="2"
     inkscape:zoom="3.6618475"
     inkscape:cx="16.629876"
     inkscape:cy="103.28896"
     inkscape:document-units="mm"
     inkscape:current-layer="layer1"
     inkscape:document-rotation="0"
     showgrid="false"
     inkscape:window-width="1920"
     inkscape:window-height="1043"
     inkscape:window-x="26"
     inkscape:window-y="23"
     inkscape:window-maximized="0" />
  <metadata
     id="metadata5">
    <rdf:RDF>
      <cc:Work
         rdf:about="">
        <dc:format>image/svg+xml</dc:format>
        <dc:type
           rdf:resource="http://purl.org/dc/dcmitype/StillImage" />
        <dc:title></dc:title>
      </cc:Work>
    </rdf:RDF>
  </metadata>
  <g
     inkscape:label="Ebene 1"
     inkscape:groupmode="layer"
     id="layer1">
    <path
       id="rect2127"
       style="fill:#000000;fill-opacity:1;stroke:none;stroke-width:0.719724;stroke-dasharray:4.31834, 0.71972400000000003"
       d="M 1.6035156 0 C 1.6029101 0.0013535001 1.6021687 0.0025527628 1.6015625 0.00390625 L 0.001953125 0.00390625 L 0.001953125 50.400391 L 4.640625 50.400391 C 3.3232447 51.400953 2.2692781 52.674691 1.4863281 54.228516 C 0.49713819 56.216793 0.001953125 59.665332 0.001953125 62.324219 C 0.001953125 64.980304 0.49922436 67.304089 1.4902344 69.296875 L 0 67.806641 L 0 71.324219 L 5.3808594 76.705078 L 0 82.085938 L 0 85.882812 L 4.9453125 80.935547 L 0.61914062 93.792969 L 0 95.632812 L 0 105.94922 C 1.3220667 107.45141 2.1003632 109.0302 2.3359375 110.68945 C 2.5658432 112.30883 2.3206223 113.92074 1.6035156 115.52344 L 4.2558594 115.52344 L 25.986328 93.792969 L 24.144531 91.951172 L 18.597656 93.792969 L 1.4609375 99.488281 L 3.3378906 93.792969 L 8.9570312 76.763672 L 6.453125 74.261719 C 8.189195 75.123198 10.193746 75.559023 12.472656 75.5625 L 12.472656 75.578125 L 28.451172 75.578125 L 57.664062 75.578125 C 57.671622 68.314141 57.668347 60.935568 57.667969 54.714844 L 71.392578 73.876953 L 69.238281 76.03125 L 72.517578 79.310547 C 70.878548 79.086496 69.232438 79.242064 67.580078 79.787109 C 65.474689 80.493571 62.684797 82.58278 60.804688 84.462891 C 58.916258 86.35132 57.619893 88.357788 56.914062 90.480469 C 56.554668 91.588777 56.36862 92.692911 56.349609 93.792969 C 56.332224 94.800421 56.454083 95.804379 56.722656 96.804688 C 57.282446 98.889659 58.465232 100.83475 60.265625 102.64062 L 60.253906 102.65234 L 73.125 115.52344 L 76.652344 115.52344 L 83.125 109.05078 L 89.599609 115.52344 L 93.115234 115.52344 L 84.882812 107.29297 L 91.097656 101.07812 L 94.033203 104.00977 C 95.92534 105.9019 99.063492 108.25637 101.18164 108.81055 C 103.30875 109.37365 105.42117 109.29938 107.51758 108.58398 C 109.62232 107.86024 112.81868 105.35126 114.67383 103.49609 L 124.375 93.792969 L 132.2832 85.882812 L 132.2832 82.085938 L 120.57617 93.792969 L 120.15625 94.212891 C 120.17401 94.072859 120.17736 93.933091 120.18945 93.792969 C 120.29377 92.572268 120.20004 91.349202 119.875 90.121094 C 119.32085 88.002944 116.96441 84.864816 115.07227 82.972656 C 115.05488 82.95527 115.03343 82.934863 115.01562 82.917969 L 108.7832 76.722656 L 115.25977 70.246094 L 123.77539 78.761719 L 125.5332 77.001953 L 117.01953 68.490234 L 123.23242 62.273438 L 132.2832 71.324219 L 132.2832 67.806641 L 104.87109 40.396484 L 75.568359 69.699219 L 75.568359 42.287109 L 73.933594 41.892578 C 73.337555 43.951427 72.272792 45.557974 70.738281 46.710938 C 69.203763 47.863912 67.236714 48.441406 64.839844 48.441406 C 62.747323 48.441406 60.974035 47.993744 59.515625 47.099609 C 58.069884 46.205483 56.975776 44.953603 56.240234 43.341797 C 55.517328 41.718237 55.165145 39.832634 55.177734 37.691406 C 55.203435 35.538427 55.575959 33.65672 56.298828 32.044922 C 57.021701 30.433119 58.100131 29.181251 59.533203 28.287109 C 60.978944 27.392984 62.747323 26.947266 64.839844 26.947266 C 67.236714 26.947266 69.203763 27.522817 70.738281 28.675781 C 72.272792 29.828752 73.337555 31.435274 73.933594 33.494141 L 75.513672 33.107422 L 75.513672 2.3886719 L 92.210938 19.085938 C 97.352697 13.954863 102.5664 8.7368865 106.96484 4.3378906 L 102.89648 29.742188 L 104.88477 31.732422 L 128.41016 8.2070312 L 127.5332 6.7714844 C 125.65589 7.8058693 123.76752 8.1877578 121.86719 7.9179688 C 119.96686 7.6481857 118.16751 6.6675022 116.47266 4.9726562 C 114.99302 3.4930243 114.05526 1.9232726 113.65625 0.25976562 C 113.63586 0.17327885 113.63288 0.086517061 113.61523 0 L 110.88477 0 C 110.93113 0.23836738 110.98247 0.47616562 111.04492 0.71484375 C 111.59907 2.8329898 112.8227 4.8383269 114.71484 6.7304688 C 116.18549 8.2011418 117.72682 9.2689007 119.33984 9.9335938 C 120.22011 10.292838 121.10078 10.528456 121.98242 10.65625 L 106.13867 26.498047 L 110.19922 1.1054688 L 109.09375 0 L 107.32422 0 L 91.947266 15.376953 L 76.648438 0.00390625 L 76.652344 0 L 73.126953 0 L 73.130859 0.00390625 L 72.90625 0.00390625 L 62.197266 21.375 L 51.429688 0.00390625 L 28.451172 0.00390625 L 4.2519531 0.00390625 L 4.2558594 0 L 1.6035156 0 z M 89.599609 0 L 91.640625 2.0410156 L 93.398438 0.28320312 L 93.115234 0 L 89.599609 0 z M 2.8222656 2.4570312 L 11.238281 2.4570312 C 12.151391 2.4570312 12.970499 2.6275809 13.693359 2.96875 C 14.41623 3.3099128 14.980889 3.7924733 15.386719 4.4160156 C 15.792539 5.0277953 15.994141 5.725417 15.994141 6.5136719 C 15.994141 7.3372181 15.778828 8.0794432 15.347656 8.7382812 C 14.929166 9.3971153 14.359579 9.9165087 13.636719 10.292969 C 12.913849 10.657661 12.113331 10.839845 11.238281 10.839844 L 2.8222656 10.839844 L 2.8222656 2.4570312 z M 17.34375 2.4921875 L 25.658203 2.4921875 L 25.658203 27.115234 C 25.149983 27.750316 24.708155 28.450448 24.333984 29.216797 C 23.357475 31.20507 22.869141 35.069771 22.869141 37.693359 C 22.869141 40.316934 23.357475 44.34957 24.333984 46.349609 C 25.278214 48.272202 26.653132 49.779446 28.451172 50.876953 L 28.451172 50.878906 C 28.511384 50.915568 28.567716 50.956395 28.628906 50.992188 C 29.092706 51.263632 29.692804 51.50025 30.371094 51.705078 L 30.371094 73.089844 L 28.451172 73.089844 L 20.501953 73.089844 C 21.627923 72.193695 22.521278 71.095542 23.173828 69.791016 C 24.086928 67.979216 24.542969 65.907588 24.542969 63.578125 C 24.542969 63.060466 24.517303 62.562452 24.466797 62.080078 L 15.220703 62.080078 L 15.220703 64.302734 L 21.535156 64.302734 C 21.382985 67.102797 20.57071 69.267436 19.099609 70.796875 C 17.62851 72.326355 15.466712 73.085932 12.613281 73.074219 C 10.520761 73.06288 8.7455297 72.608978 7.2871094 71.714844 C 5.8413894 70.820713 4.7511747 69.570779 4.015625 67.958984 C 3.2927648 66.347182 2.9434298 64.465431 2.96875 62.324219 C 2.994035 60.171226 3.3689265 57.162591 4.0917969 55.550781 C 4.8146667 53.938983 5.8931118 52.692912 7.3261719 51.810547 C 8.7592319 50.916386 10.520772 50.474612 12.613281 50.486328 C 14.578981 50.486328 16.254379 50.945623 17.636719 51.863281 C 19.019039 52.769185 20.021158 54.015249 20.642578 55.603516 L 23.457031 54.96875 C 22.708801 52.780479 21.403313 51.069315 19.539062 49.833984 C 18.777443 49.32585 17.927027 48.928018 16.998047 48.628906 C 17.227816 48.475042 17.454642 48.315092 17.669922 48.140625 C 19.077622 46.98765 20.135533 45.512932 20.845703 43.712891 C 21.555873 41.912849 21.910156 39.905166 21.910156 37.693359 C 21.910156 35.493308 21.555893 33.491448 20.845703 31.691406 C 20.135533 29.891368 19.070751 28.416643 17.650391 27.263672 C 17.28307 26.962829 16.895068 26.69504 16.486328 26.455078 C 17.648218 25.792084 18.558234 24.866537 19.208984 23.667969 C 19.881094 22.416377 20.21875 20.952622 20.21875 19.279297 C 20.21875 17.592376 19.818491 16.116757 19.019531 14.851562 C 18.233261 13.572761 17.117625 12.60215 15.671875 11.935547 C 16.661065 11.323359 17.441029 10.661947 18.011719 9.7089844 C 18.595099 8.7560215 18.886719 7.7056944 18.886719 6.5527344 C 18.886719 5.3527004 18.562795 4.251982 17.916016 3.2519531 C 17.745064 2.9823881 17.55257 2.7308426 17.34375 2.4921875 z M 28.451172 2.4921875 L 48.859375 2.4921875 L 48.859375 27.251953 C 48.018234 26.169961 46.989965 25.270385 45.765625 24.558594 C 43.876016 23.452694 39.990323 22.898437 37.314453 22.898438 C 37.289886 22.898438 37.261046 22.900191 37.236328 22.900391 L 28.451172 22.927734 L 28.451172 13.767578 L 40.490234 13.767578 L 40.490234 11.28125 L 28.451172 11.28125 L 28.451172 2.4921875 z M 51.542969 5.7910156 L 61.027344 24.896484 C 59.923574 25.17273 58.910336 25.577895 57.992188 26.115234 C 56.102579 27.221147 54.669868 28.775349 53.693359 30.775391 C 52.716847 32.763675 52.228516 35.067822 52.228516 37.691406 C 52.228516 40.314985 52.716847 42.62886 53.693359 44.628906 C 54.669868 46.617191 56.10259 48.16363 57.992188 49.269531 C 59.881799 50.375447 62.163953 50.929688 64.839844 50.929688 C 66.919654 50.929688 68.766364 50.592477 70.376953 49.921875 C 71.253433 49.553447 72.040116 49.095557 72.753906 48.5625 L 72.753906 70.96875 L 57.667969 50.144531 L 54.855469 50.144531 L 54.855469 73.142578 L 33.166016 73.089844 L 33.166016 63.927734 L 45.208984 63.927734 L 45.208984 61.441406 L 33.166016 61.441406 L 33.166016 52.654297 L 37.314453 52.652344 C 39.990323 52.652344 43.876016 52.098095 45.765625 50.992188 C 47.667907 49.886286 49.107487 48.337883 50.083984 46.349609 C 51.060486 44.34957 51.546875 40.314996 51.546875 37.691406 L 51.542969 5.7910156 z M 72.847656 5.7910156 L 72.847656 26.90625 C 72.107897 26.34434 71.292423 25.865428 70.376953 25.482422 C 68.762895 24.80716 66.919654 24.457031 64.839844 24.457031 C 64.394725 24.457031 63.966329 24.477063 63.542969 24.507812 L 72.847656 5.7910156 z M 2.8222656 13.503906 L 11.962891 13.503906 C 12.977451 13.503906 13.889522 13.770121 14.701172 14.302734 C 15.512822 14.835352 16.153807 15.55964 16.623047 16.470703 C 17.092287 17.381766 17.328125 18.390747 17.328125 19.498047 C 17.328125 20.619357 17.066835 21.591004 16.546875 22.417969 C 16.039595 23.244931 15.342808 23.883514 14.455078 24.332031 C 13.567338 24.766522 12.563296 24.982422 11.447266 24.982422 L 2.8222656 24.982422 L 2.8222656 13.503906 z M 37.314453 25.386719 C 39.406942 25.398435 42.77888 25.851961 44.224609 26.746094 C 45.67035 27.64024 46.755647 28.892104 47.478516 30.503906 C 48.214068 32.115704 48.580078 35.550192 48.580078 37.691406 C 48.580078 39.8444 48.214068 43.448737 47.478516 45.060547 C 46.755647 46.672349 45.67035 47.926191 44.224609 48.820312 C 42.77888 49.714454 39.406942 50.162109 37.314453 50.162109 C 35.221933 50.150393 31.608811 49.69688 30.150391 48.802734 C 29.510651 48.407082 28.951582 47.928912 28.451172 47.392578 L 28.451172 47.388672 C 27.822422 46.713731 27.292062 45.939756 26.882812 45.042969 C 26.159954 43.431174 25.810237 39.834572 25.835938 37.693359 C 25.861636 35.540364 26.236114 32.098126 26.958984 30.486328 C 27.349494 29.615597 27.853482 28.858743 28.451172 28.197266 L 28.451172 28.191406 C 28.958552 27.631033 29.532973 27.13617 30.189453 26.726562 C 31.622523 25.832437 35.221933 25.386718 37.314453 25.386719 z M 2.8964844 27.523438 L 10.716797 27.523438 C 11.302347 27.558586 11.814093 27.612178 12.226562 27.6875 C 14.496633 28.063956 16.185734 29.145324 17.289062 30.933594 C 18.392392 32.72187 18.941406 34.975655 18.941406 37.693359 C 18.941406 40.399294 18.392392 42.655037 17.289062 44.455078 C 16.198414 46.255101 14.509322 47.334494 12.226562 47.699219 C 11.452974 47.840384 10.376471 47.912109 8.9941406 47.912109 L 2.8964844 47.912109 L 2.8964844 27.523438 z M 105.13281 44.125 L 111.08398 50.076172 C 111.72962 50.721829 112.18714 51.421441 112.45703 52.173828 C 112.72693 52.926207 112.78484 53.664709 112.63086 54.392578 C 112.48523 55.112151 112.13356 55.749274 111.57617 56.306641 C 110.99388 56.888986 110.31757 57.262858 109.54688 57.423828 C 108.78507 57.593756 108.01564 57.557413 107.23828 57.3125 C 106.46924 57.059234 105.77502 56.620711 105.15625 56.001953 L 99.205078 50.052734 L 105.13281 44.125 z M 97.322266 51.9375 L 103.78516 58.400391 C 104.50254 59.11779 104.95701 59.949862 105.1543 60.900391 C 105.35163 61.850927 105.29288 62.814998 104.98047 63.791016 C 104.66805 64.767045 104.1228 65.646717 103.33984 66.429688 C 102.54696 67.222571 101.67508 67.728255 100.72266 67.945312 C 99.779203 68.171404 98.835496 68.128923 97.890625 67.818359 C 96.955668 67.497855 96.091885 66.941502 95.302734 66.152344 L 89.205078 60.054688 L 97.322266 51.9375 z M 115.375 54.416016 L 121.25586 60.298828 L 103.84375 77.707031 C 103.03533 77.796757 102.22834 77.978555 101.42188 78.255859 C 99.325449 78.971294 96.247737 81.361627 94.392578 83.216797 C 92.537427 85.071948 90.028436 88.268307 89.304688 90.373047 C 88.916745 91.509899 88.723347 92.649771 88.708984 93.792969 C 88.69689 94.757901 88.810809 95.725804 89.064453 96.695312 C 89.200478 97.215243 89.456225 97.805219 89.791016 98.429688 L 74.669922 113.55078 L 67.689453 106.56836 C 69.119313 106.73088 70.526297 106.58802 71.910156 106.12695 C 73.836967 105.49147 75.624313 104.34835 77.271484 102.70117 C 77.637532 102.33512 77.971905 101.96465 78.277344 101.58789 L 71.738281 95.050781 L 70.167969 96.623047 L 74.632812 101.08789 C 72.545275 102.96024 70.442022 103.91772 68.320312 103.95898 C 66.198604 104.00026 64.132478 103.00639 62.123047 100.98047 C 60.651416 99.492819 59.715415 97.917405 59.316406 96.253906 C 59.123046 95.433798 59.054647 94.613931 59.109375 93.792969 C 59.164896 92.95702 59.34938 92.122896 59.662109 91.285156 C 60.290679 89.634315 61.372265 88.056677 62.904297 86.560547 C 64.444575 85.056057 66.837421 83.194957 68.488281 82.566406 C 69.313711 82.252101 70.136896 82.063876 70.958984 82.003906 C 71.781066 81.943925 72.601303 82.011856 73.419922 82.207031 C 75.065502 82.588098 76.624333 83.521898 78.095703 85.009766 C 79.485674 86.399728 80.343275 87.908826 80.671875 89.535156 C 80.972045 90.976736 80.84388 92.39522 80.333984 93.792969 C 80.271547 93.964068 80.226914 94.136263 80.152344 94.306641 L 82.591797 95.847656 C 82.924395 95.169409 83.170895 94.48342 83.347656 93.792969 C 83.712003 92.369659 83.752539 90.921112 83.453125 89.445312 C 83.273862 88.547445 82.9532 87.663321 82.507812 86.794922 C 82.779069 86.848629 83.052552 86.897057 83.328125 86.925781 C 85.138772 87.105914 86.93008 86.811642 88.705078 86.041016 C 90.480069 85.270396 92.150841 84.101101 93.714844 82.537109 C 95.270482 80.981441 96.434459 79.315999 97.205078 77.541016 C 97.975728 75.766006 98.265262 73.970018 98.076172 72.150391 C 98.029192 71.677927 97.945492 71.21262 97.826172 70.753906 C 99.116563 71.10665 100.41497 71.096348 101.72266 70.708984 C 103.08292 70.299257 104.35585 69.505481 105.53906 68.322266 C 106.73189 67.129428 107.49257 65.803313 107.82227 64.34375 C 108.17051 62.883514 108.06856 61.405767 107.51758 59.912109 C 108.64994 60.178679 109.67067 60.264452 110.74805 59.994141 C 111.83439 59.732824 112.78044 59.19613 113.5957 58.380859 C 114.44425 57.532306 114.99439 56.523844 115.24414 55.359375 C 115.31391 55.047904 115.35383 54.7324 115.375 54.416016 z M 87.458984 61.900391 L 92.992188 67.431641 C 93.381376 67.870531 93.704947 68.268358 93.943359 68.613281 C 95.282367 70.484665 95.708941 72.445563 95.224609 74.490234 C 94.74027 76.534913 93.536935 78.517741 91.615234 80.439453 C 89.701833 82.35285 87.719006 83.558131 85.666016 84.050781 C 83.621987 84.552404 81.663046 84.12376 79.791016 82.767578 C 79.144176 82.320388 78.33293 81.606349 77.355469 80.628906 L 73.042969 76.318359 L 87.458984 61.900391 z M 104.85352 80.447266 C 105.67769 80.385281 106.50339 80.450265 107.32617 80.640625 C 108.97175 81.021715 111.83091 83.248899 113.31055 84.728516 C 114.7819 86.216425 116.8463 88.925537 117.23633 90.580078 C 117.48918 91.652678 117.50499 92.722142 117.33008 93.792969 C 117.23517 94.37395 117.09998 94.954515 116.87891 95.535156 C 116.25931 97.194985 114.09024 99.884364 112.57617 101.39844 C 111.05379 102.92083 108.24576 105.20852 106.58594 105.82812 C 104.93508 106.4567 103.28345 106.57556 101.62891 106.18555 C 99.974361 105.79548 97.270644 103.72768 95.791016 102.24805 C 94.319664 100.76013 92.086509 97.886166 91.6875 96.222656 C 91.496823 95.413595 91.43136 94.603201 91.482422 93.792969 C 91.535751 92.946271 91.716566 92.100132 92.033203 91.251953 C 92.661765 89.601093 94.958112 86.80852 96.490234 85.3125 C 98.030792 83.808271 100.72999 81.640288 102.38086 81.011719 C 103.2063 80.697413 104.02933 80.509325 104.85352 80.447266 z M 132.2832 95.632812 L 130.42578 101.15039 C 129.44994 100.56524 128.44717 100.13644 127.41797 99.867188 C 125.29982 99.313026 123.18677 99.397337 121.08203 100.12109 C 118.98561 100.83654 117.01141 102.12337 115.15625 103.97852 C 113.3011 105.83368 112.00891 107.81323 111.28516 109.91797 C 110.65034 111.77817 110.51967 113.64641 110.88477 115.52344 L 113.61523 115.52344 C 113.29535 113.95484 113.41082 112.38167 113.99805 110.80859 C 114.63491 109.1494 115.71725 107.56768 117.24023 106.0625 C 118.78078 104.55827 120.37647 103.49185 122.02734 102.86328 C 122.85277 102.54901 123.67778 102.36087 124.50195 102.29883 C 125.32613 102.23677 126.14792 102.30163 126.9707 102.49219 C 128.62525 102.88223 130.19225 103.81919 131.67188 105.29883 C 131.88687 105.51383 132.09113 105.73097 132.2832 105.94922 L 132.2832 95.632812 z M 20.009766 96.001953 L 5.0800781 110.93164 C 4.954328 110.01122 4.7144106 109.09394 4.3378906 108.17578 C 3.6740704 106.55696 2.6210606 105.00778 1.1503906 103.53711 C 0.83563066 103.22235 0.5163825 102.93386 0.1953125 102.65625 L 20.009766 96.001953 z M 108.20898 114.63867 L 107.32422 115.52344 L 109.09375 115.52344 L 108.20898 114.63867 z "
       transform="scale(0.26458333)" />
  </g>
</svg>
