<?xml version="1.0" encoding="UTF-8" standalone="no"?>
<!-- Created with Inkscape (http://www.inkscape.org/) -->

<svg
   xmlns:dc="http://purl.org/dc/elements/1.1/"
   xmlns:cc="http://creativecommons.org/ns#"
   xmlns:rdf="http://www.w3.org/1999/02/22-rdf-syntax-ns#"
   xmlns:svg="http://www.w3.org/2000/svg"
   xmlns="http://www.w3.org/2000/svg"
   xmlns:sodipodi="http://sodipodi.sourceforge.net/DTD/sodipodi-0.dtd"
   xmlns:inkscape="http://www.inkscape.org/namespaces/inkscape"
   width="215mm"
   height="297mm"
   viewBox="0 0 215 297"
   version="1.1"
   id="svg8"
   inkscape:version="0.92.4 5da689c313, 2019-01-14"
   sodipodi:docname="goldstein web.svg">
  <defs
     id="defs2" />
  <sodipodi:namedview
     id="base"
     pagecolor="#ffffff"
     bordercolor="#666666"
     borderopacity="1.0"
     inkscape:pageopacity="0.0"
     inkscape:pageshadow="2"
     inkscape:zoom="0.49497475"
     inkscape:cx="373.85773"
     inkscape:cy="603.03677"
     inkscape:document-units="mm"
     inkscape:current-layer="layer1"
     showgrid="false"
     inkscape:window-width="1920"
     inkscape:window-height="1080"
     inkscape:window-x="0"
     inkscape:window-y="0"
     inkscape:window-maximized="1" />
  <metadata
     id="metadata5">
    <rdf:RDF>
      <cc:Work
         rdf:about="">
        <dc:format>image/svg+xml</dc:format>
        <dc:type
           rdf:resource="http://purl.org/dc/dcmitype/StillImage" />
        <dc:title></dc:title>
      </cc:Work>
    </rdf:RDF>
  </metadata>
  <g
     inkscape:label="Ebene 1"
     inkscape:groupmode="layer"
     id="layer1">
    <path
       style="opacity:1;fill:#2f2933;fill-opacity:1;fill-rule:nonzero;stroke:none;stroke-width:3.18683624;stroke-miterlimit:4;stroke-dasharray:none;stroke-opacity:1"
       d="M 3.2182961,0.39718973 C 1.5708447,0.39931429 0.69817215,0.42758418 0.62726286,0.48227825 -0.12513841,1.0626064 -0.2438534,145.39145 0.50786698,145.64328 c 0.25635383,0.0859 2.31161412,0.0963 4.56724502,0.0226 2.2556295,-0.0737 33.191165,-1.06752 68.74541,-2.20883 35.554248,-1.14133 80.242748,-2.52142 99.308078,-3.06656 19.06531,-0.54515 35.1033,-1.16413 35.64042,-1.3758 l 0.97714,-0.38494 0.32112,-66.17909 C 210.24397,36.052315 210.2249,6.1087196 210.02546,5.9092436 209.82595,5.7098167 191.95668,5.0984315 170.31593,4.5506503 148.67517,4.0028677 101.7744,2.7620704 66.091339,1.7928739 32.045538,0.868147 10.357251,0.38812584 3.2182961,0.39717247 Z M 6.1668315,5.2341058 C 15.211772,5.1807528 84.254131,6.8327475 85.21256,7.1609146 85.722517,7.335524 85.773913,18.785695 85.506933,72.604408 85.328954,108.48193 85.050662,137.97996 84.888679,138.15562 84.726703,138.3313 66.992617,139.01794 45.479724,139.68101 0.2900498,141.07387 5.4299034,140.96078 5.038058,140.56893 4.5091175,140.04 4.6659427,5.5959338 5.1958804,5.2684174 5.2276187,5.2488183 5.5638357,5.2376777 6.1668315,5.2340925 Z M 44.656302,13.584973 c -2.071115,-0.01036 -3.97396,0.275423 -4.490392,0.791859 -0.790467,0.790466 0.691372,4.280867 2.848351,6.709514 l 1.996796,2.248627 -0.7102,1.69899 c -0.390558,0.934741 -0.586399,2.088187 -0.435728,2.562903 0.15067,0.474712 3.421162,3.112823 7.268067,5.862761 l 6.994283,5.000223 3.242909,5.194423 c 1.783517,2.857118 3.39537,5.803069 3.581883,6.5462 l 0.338974,1.351099 -2.05924,-0.406229 c -3.79381,-0.748521 -6.571554,-0.499311 -9.473464,0.850182 -2.036613,0.947114 -2.686942,1.47974 -2.560841,2.098358 0.146032,0.716428 0.625611,0.810599 3.526989,0.691677 3.997775,-0.163857 8.216631,0.82717 9.781563,2.29735 0.860922,0.808792 1.116256,1.539016 1.115735,3.192134 -3.51e-4,1.178877 0.239327,4.357242 0.532478,7.063582 0.479554,4.42714 0.430038,5.527461 -0.489247,10.968665 -0.668487,3.95667 -1.580857,7.399873 -2.639755,9.957907 -0.890184,2.150464 -1.618709,4.24383 -1.618709,4.652329 0,0.408499 1.050136,1.686766 2.333714,2.840812 1.595054,1.43409 2.490214,2.680514 2.828453,3.936632 0.27219,1.010849 0.66562,1.837609 0.874199,1.837609 0.208579,0 0.772658,-0.89565 1.253659,-1.990617 1.181379,-2.689331 3.963256,-6.896844 4.6043,-6.9641 0.285572,-0.03001 1.462819,-0.08299 2.616424,-0.117381 1.55006,-0.04634 2.138071,-0.265716 2.252056,-0.841949 0.09584,-0.484479 -0.254934,-0.905606 -0.926351,-1.111622 -2.143098,-0.657577 -2.229049,-0.974521 -1.23513,-4.572047 0.679177,-2.458312 1.304651,-3.692029 2.304208,-4.545291 1.245107,-1.062877 1.371403,-1.440012 1.367565,-4.080744 -0.0021,-1.60027 -0.425481,-4.717128 -0.940757,-6.927026 -0.51528,-2.209885 -0.939837,-5.432626 -0.94282,-7.161711 -0.0048,-2.75081 0.267556,-3.742049 2.175892,-7.926126 l 2.180694,-4.781329 -2.069531,-5.510066 -2.068847,-5.509376 -5.746799,-4.865048 c -3.160572,-2.675524 -9.208285,-8.289922 -13.43961,-12.476843 -7.598645,-7.518907 -7.728425,-7.620219 -10.5247,-8.21363 -1.101264,-0.233703 -2.404405,-0.346478 -3.647071,-0.352701 z M 28.10827,17.740509 c -0.963021,0.03731 -2.351027,0.535591 -4.932979,1.644785 -3.505681,1.506024 -5.333028,2.884973 -5.333028,4.023099 0,0.437742 2.593739,0.477726 4.625573,0.07136 1.152863,-0.230571 1.464318,-0.532646 1.464318,-1.420402 0,-0.619979 0.263263,-1.201045 0.585314,-1.291399 5.474053,-1.535821 6.178835,-1.904278 5.031792,-2.629462 -0.437914,-0.276859 -0.863173,-0.420376 -1.44099,-0.397985 z m 29.861387,10.27081 c 0.46656,-0.01704 1.484059,0.594185 3.218203,1.903476 1.403287,1.059493 2.435265,2.113244 2.293917,2.34195 -0.308925,0.49985 -0.219432,0.508784 -1.37237,-0.139983 -1.650433,-0.928713 -4.449905,-3.255848 -4.449905,-3.699222 0,-0.260649 0.09807,-0.398467 0.310155,-0.406221 z m -19.235129,2.637008 c -1.660169,0.02013 -3.47658,0.19734 -5.284995,0.551006 -3.656202,0.715037 -4.673844,1.129638 -6.791855,2.764638 -3.311699,2.556464 -4.572378,3.976531 -6.75343,7.609099 l -1.827995,3.044597 -0.308099,10.071146 c -0.16968,5.539252 -0.459651,10.658081 -0.64364,11.37488 -0.198634,0.77387 -0.03749,2.391561 0.396615,3.981938 0.402087,1.473128 0.868041,3.94294 1.035451,5.488781 0.167414,1.545828 0.713301,5.522043 1.213177,8.836007 l 0.909193,6.025378 3.340346,4.603624 3.340346,4.60361 6.132434,2.370079 c 4.196701,1.62182 6.557777,2.29556 7.479415,2.1354 0.740713,-0.12867 2.464559,-0.23398 3.830966,-0.23398 3.352738,0 3.994488,-0.68558 3.629232,-3.874884 -0.154264,-1.347009 -0.565102,-2.864395 -0.913313,-3.372602 -0.348206,-0.508181 -0.633346,-1.916523 -0.633346,-3.128995 0,-2.671657 -0.686995,-3.460519 -3.372599,-3.871461 -2.364735,-0.361852 -4.428221,-1.74162 -3.894785,-2.604748 0.258426,-0.418152 0.915867,-0.481052 2.292544,-0.218895 2.814434,0.535946 7.249328,0.463432 7.841032,-0.12827 0.63425,-0.634247 -4.878278,-1.203297 -9.522872,-0.983299 -1.825053,0.08644 -3.200763,-0.0478 -3.279274,-0.319759 -0.212279,-0.735256 7.156128,-2.515423 8.444186,-2.040026 1.728689,0.638004 3.65093,0.467044 4.709971,-0.419269 0.869007,-0.727275 0.924851,-1.030928 0.495427,-2.693274 -0.767519,-2.971127 -0.735418,-3.197738 0.49817,-3.500912 0.711402,-0.174851 1.345581,-0.7942 1.624198,-1.586461 0.39019,-1.109483 0.175206,-1.825977 -1.467748,-4.898671 -2.914124,-5.450061 -3.463149,-7.948939 -3.581883,-16.297573 l -0.102921,-7.237875 -1.354529,-1.080059 -1.354529,-1.080045 0.596981,-3.004815 c 0.59912,-3.013326 0.715399,-7.41822 0.235361,-8.930688 -0.406373,-1.280378 -3.304853,-1.997857 -6.957226,-1.953569 z m -20.011205,5.051006 c -0.314827,0.01062 -0.759613,0.05471 -1.229643,0.126278 -3.09986,0.472143 -6.587228,8.59175 -3.672458,8.550547 0.279108,-0.004 0.754414,-0.164268 1.056039,-0.356129 0.301623,-0.191861 0.701977,-0.978744 0.88998,-1.749082 0.188006,-0.770338 0.924438,-2.071868 1.635864,-2.892266 1.203799,-1.388199 2.138608,-3.310618 1.770355,-3.640894 -0.02199,-0.01965 -0.08626,-0.0324 -0.182525,-0.03771 -0.0722,-0.004 -0.162667,-0.004 -0.267612,-7.04e-4 z m 56.920391,7.426576 c 0.06517,-0.01753 0.147434,0.0027 0.248398,0.06453 0.504232,0.311632 2.100607,4.906027 1.806725,5.199907 -0.109256,0.109282 -0.657564,-0.618313 -1.218664,-1.616656 -0.89675,-1.595555 -1.292657,-3.524826 -0.836459,-3.647745 z m -61.813572,5.46889 c -0.314563,-0.06214 -0.852975,1.266209 -1.368937,3.634719 -0.435083,1.997217 -1.32676,4.418522 -1.981703,5.382433 -0.9890086,1.455588 -1.1384771,2.0788 -0.8824338,3.680013 0.1695151,1.060074 0.6382968,2.56519 1.0416308,3.345155 0.707332,1.36783 0.693357,2.973225 -0.04117,4.690757 -0.253464,0.592672 -0.13441,0.819309 0.428865,0.819309 0.477055,0 1.15371,-0.847313 1.745654,-2.185506 0.884574,-1.999726 0.9147,-2.402064 0.355444,-4.733301 -0.525655,-2.191175 -0.499257,-3.213021 0.188017,-7.300324 0.439519,-2.613896 0.794567,-5.331975 0.789111,-6.040489 -0.0065,-0.846211 -0.109707,-1.260221 -0.274476,-1.292766 z m 64.092392,0.617569 c 0.02171,-0.0027 0.04301,-10e-4 0.06382,0.0066 0.705606,0.250671 0.511874,3.527721 -0.325252,5.499762 -0.574007,1.352201 -0.739132,1.475186 -1.03271,0.767164 -0.456124,-1.100042 0.621096,-6.172197 1.294146,-6.273101 z m -42.060375,1.290031 c 1.51502,0.0053 2.084508,0.323278 3.73353,1.44373 1.272396,0.864548 2.391553,1.821183 2.48742,2.125792 0.39052,1.240821 -1.551134,1.515579 -5.993139,0.848123 l -4.386775,-0.659409 -3.357502,1.854061 c -3.771375,2.081841 -3.875971,2.111359 -4.22827,1.193284 -0.493847,-1.286937 1.193754,-3.471845 3.8591,-4.996799 2.119184,-1.212472 3.326243,-1.561855 5.980101,-1.7285 0.790099,-0.04966 1.400528,-0.08206 1.905535,-0.08033 z m 23.084624,7.98718 c -0.510414,-0.03333 -0.806389,0.377441 -0.905077,1.235138 -0.117382,1.020146 -0.390345,1.287973 -1.312671,1.287973 -0.796057,0 -1.218437,-0.296282 -1.333945,-0.936637 -0.280261,-1.553742 -0.885343,-1.832272 -2.162166,-0.995661 -1.569066,1.0281 -1.507879,1.521502 0.327309,2.64044 2.194141,1.337794 5.113418,1.23385 6.766466,-0.240845 l 1.314045,-1.172689 -1.105445,-0.935284 c -0.66464,-0.562211 -1.191528,-0.856568 -1.588516,-0.882435 z m -20.571817,0.415152 c 1.796094,0 2.032941,0.358665 1.24474,1.882889 -0.962365,1.861006 -3.476978,2.625661 -6.612074,2.010522 -0.547672,-0.107423 -1.496254,-0.728086 -2.107959,-1.379236 -1.080383,-1.150023 -1.087047,-1.202858 -0.223698,-1.83417 1.053429,-0.770298 1.593059,-0.520504 2.173145,1.00526 0.695454,1.829178 4.198767,1.191426 4.198767,-0.764402 0,-0.698342 0.320058,-0.920863 1.327079,-0.920863 z m 35.413304,8.100406 c 0.136417,-0.01195 0.346346,0.315245 0.50023,0.800095 0.175867,0.554111 0.214594,1.113162 0.08578,1.24199 -0.128815,0.128801 -0.377883,-0.219214 -0.55375,-0.773326 -0.175871,-0.554111 -0.214594,-1.113175 -0.08578,-1.241989 0.01609,-0.01607 0.03405,-0.0251 0.05353,-0.02682 z m 0.732159,11.105898 c 0.658437,0 0.309131,2.815676 -0.769897,6.206549 -0.734042,2.306725 -1.265638,2.756587 -1.75389,1.484216 -0.156386,-0.40753 -0.284079,-2.002714 -0.284079,-3.544837 0,-2.52894 0.08567,-2.77673 0.878316,-2.525156 0.625885,0.198646 0.950462,0.0053 1.1274,-0.671095 0.136639,-0.522481 0.497742,-0.949677 0.80215,-0.949677 z m -49.487637,5.795514 c 0.668737,-0.122029 5.467204,3.845701 5.718662,4.768994 0.14409,0.529041 0.193138,2.110017 0.108419,3.513261 -0.139537,2.311293 -0.203081,2.441501 -0.671091,1.380604 -0.284138,-0.6441 -0.665556,-1.857992 -0.848123,-2.697392 -0.18257,-0.839399 -1.285524,-2.697284 -2.451054,-4.128094 -1.165529,-1.43081 -2.024364,-2.695891 -1.908279,-2.811971 0.01275,-0.01328 0.0299,-0.02151 0.05147,-0.02536 z m -11.127171,1.95288 c -0.145758,0.02775 -0.281132,0.287067 -0.48925,0.708155 -0.984164,1.991294 -2.296924,6.992967 -1.930923,7.355894 0.193205,0.191582 0.859352,-0.283801 1.480789,-1.056728 l 1.130144,-1.405302 -0.279277,2.810617 c -0.306673,3.085176 0.307038,5.38655 1.43687,5.38655 0.392836,0 0.725932,-0.158107 0.739707,-0.351336 0.417211,-5.851256 0.176072,-8.953336 -0.879686,-11.334394 -0.692788,-1.562439 -0.965439,-2.159586 -1.208374,-2.113456 z m 123.654599,8.693967 c 0.56918,0.0066 1.21911,0.02696 1.96111,0.05152 l 4.09584,0.135175 v 5.387239 5.38723 l -4.70791,0.13239 c -2.58943,0.0729 -4.85572,-0.0154 -5.03592,-0.19557 -0.1802,-0.1802 -0.3273,-2.49799 -0.3273,-5.15119 0,-5.121498 0.0299,-5.790892 4.01418,-5.746794 z m -13.09859,0.421313 h 4.86849 v 5.386551 5.38724 h -1.80536 c -0.99276,0 -3.04801,0.12548 -4.56724,0.2786 -1.95728,0.19718 -2.93298,0.10144 -3.3479,-0.32801 -0.61041,-0.63194 -0.84948,-8.555274 -0.30123,-9.983986 0.23404,-0.609894 1.14597,-0.740395 5.15324,-0.740395 z m -26.421535,0.06175 c 2.272925,-0.02563 2.246565,0.82409 2.246565,5.540261 0,2.81392 -0.18034,5.22769 -0.400729,5.36389 -0.703627,0.43486 -9.187695,0.86634 -9.553061,0.48582 -0.193233,-0.20122 -0.351327,-2.75482 -0.351327,-5.67474 v -5.309002 l 1.99062,-0.06042 c 1.094969,-0.0332 2.939204,-0.134378 4.098582,-0.22507 0.798018,-0.06241 1.444828,-0.114859 1.96935,-0.120835 z m 10.233755,0.01447 c 0.57156,-0.0066 1.2132,7.04e-4 1.91995,0.02271 l 4.3806,0.135175 v 5.387246 5.38654 l -4.7086,0.13238 c -2.58942,0.0729 -4.85502,-0.0147 -5.03522,-0.19487 -0.18022,-0.18021 -0.328,-2.47999 -0.328,-5.11071 0,-3.527217 0.17195,-4.926384 0.65531,-5.32754 0.31729,-0.263326 1.40128,-0.410558 3.11596,-0.430927 z m 30.41994,1.868482 c -1.20483,-0.01846 -2.26616,0.138348 -2.51693,0.389073 -0.51884,0.518816 -0.88384,5.046766 -0.46179,5.729636 0.12521,0.2027 1.47632,0.36848 3.00205,0.36848 2.51441,0 2.79971,-0.10224 3.04803,-1.09172 0.15069,-0.60036 0.20764,-2.02323 0.12628,-3.161935 l -0.14821,-2.070222 -2.52585,-0.144098 c -0.17602,-0.01062 -0.35144,-0.0166 -0.52356,-0.01925 z m -43.92062,0.397305 c -0.925967,0 -2.918344,2.339881 -2.918344,3.427484 0,0.77946 1.190893,2.6624 1.683898,2.6624 0.07326,0 0.09339,-0.89634 0.0446,-1.99131 -0.08579,-1.925842 -0.03896,-1.995235 1.43687,-2.137461 1.754004,-0.169049 2.482365,0.886791 1.593322,2.310391 -0.72243,1.15678 -0.685326,1.81838 0.102934,1.81838 1.012794,0 1.880989,-2.52844 1.263951,-3.681379 -0.597964,-1.117318 -2.317564,-2.408505 -3.207225,-2.408505 z m 43.22277,0.936638 c 1.19579,0 1.61673,0.710173 0.61826,1.042998 -0.3432,0.114461 -0.41959,0.528829 -0.20107,1.093098 0.33212,0.85755 0.38617,0.86281 0.95587,0.0892 0.87164,-1.183523 1.28713,-1.009057 1.1171,0.46866 -0.1828,1.58883 -1.71827,1.95614 -2.86756,0.68618 -0.43665,-0.4825 -0.79391,-1.44031 -0.79391,-2.128536 0,-1.022443 0.21441,-1.251604 1.17131,-1.251604 z m -13.11779,0.09401 c -1.87523,0 -1.87338,-0.0013 -2.30627,2.395466 l -0.32251,1.78614 1.7834,-0.14685 c 1.47451,-0.12149 1.78617,-0.32536 1.7978,-1.17611 0.008,-0.56596 0.16583,-1.18071 0.35133,-1.366198 0.82639,-0.8264 0.24432,-1.492448 -1.30375,-1.492448 z m -12.74519,0.812444 c -0.29742,0.0013 -0.6628,0.240672 -1.07182,0.73353 -0.76228,0.918482 -1.82687,0.890512 -2.89433,-0.07542 -0.99454,-0.900042 -1.13745,-0.823386 -1.55215,0.828912 -0.45479,1.81202 0.854,2.93462 3.00549,2.57868 0.92131,-0.1524 2.04409,-0.2792 2.49497,-0.28201 v -7e-4 c 0.64323,-0.004 0.8193,-0.40853 0.8193,-1.87878 0,-1.247496 -0.30578,-1.906229 -0.80146,-1.904157 z m -65.20882,0.967512 c 0.545143,0 0.894063,0.24578 0.790484,0.5565 -0.228176,0.68455 -1.010426,0.9802 -1.444416,0.5462 -0.610886,-0.61089 -0.319151,-1.1027 0.653932,-1.1027 z m 11.900501,1.9076 c -0.656127,-0.0714 -1.828665,0.54755 -3.76029,1.88289 -3.083973,2.13195 -3.902662,2.45024 -9.131061,3.54895 l -5.743364,1.20699 -3.795974,-1.30032 c -2.087892,-0.71497 -5.137241,-1.89743 -6.776759,-2.62808 -1.639517,-0.73066 -3.162209,-1.21687 -3.383577,-1.08006 -0.221367,0.13681 -0.615074,1.03056 -0.874887,1.98582 -0.44401,1.63254 -0.84604,1.93179 -6.688242,4.98102 -3.418551,1.78425 -6.369954,3.47039 -6.559238,3.74725 -0.429767,0.62862 -0.473943,19.20447 -0.04666,19.63173 0.456141,0.45616 3.874955,0.39796 36.644316,-0.61892 16.332721,-0.50681 29.749517,-0.97886 29.814723,-1.04919 0.06521,-0.0704 0.264251,-4.76536 0.44259,-10.43343 0.260744,-8.28689 0.20176,-10.45608 -0.302607,-11.07297 -0.354756,-0.4339 -4.392317,-1.8406 -9.293684,-3.23878 -4.76633,-1.35966 -8.929094,-2.67445 -9.251141,-2.92109 -0.32205,-0.24665 -0.586002,-0.80156 -0.586002,-1.23376 0,-0.87881 -0.197821,-1.35248 -0.708143,-1.40805 z m 145.138349,7.20905 c 0.80371,0.003 1.2459,0.0134 1.2763,0.0323 0.5845,0.36123 0.59578,24.89879 0.0106,25.25984 -0.44054,0.27226 -102.36326,3.5248 -110.652078,3.5311 -3.808394,0.003 -4.56467,-0.12043 -4.820446,-0.78705 -0.166855,-0.43482 -0.156902,-6.42785 0.02196,-13.31747 l 0.325251,-12.5263 3.324565,-0.24703 c 5.061406,-0.37629 98.457768,-1.99252 110.513458,-1.94534 z m 0.1304,42.26143 c -7.71286,0.0254 -24.88059,0.4426 -62.26989,1.42247 -37.305,0.97764 -84.256491,2.18391 -104.336429,2.68091 -20.079946,0.49701 -36.6663809,1.06424 -36.85840895,1.26053 -0.4546183,0.46469 0.18182589,132.50223 0.64089615,132.9613 0.1923191,0.19233 16.7395728,0.8558 36.7719478,1.47393 30.815453,0.95086 166.900774,5.50483 170.005684,5.68916 0.55861,0.0331 1.34909,-0.0673 1.75663,-0.22368 0.67126,-0.25759 0.74004,-7.05566 0.73353,-72.25663 -0.004,-44.06134 -0.17733,-72.24161 -0.44671,-72.66764 -0.14552,-0.23017 -1.36953,-0.35556 -5.99725,-0.34035 z m -130.600154,8.04963 c 1.914441,7e-4 3.026478,0.023 3.074107,0.0728 0.215314,0.22487 0.544861,29.04698 0.732161,64.04848 0.289412,54.08432 0.243157,63.70085 -0.310155,64.05123 -0.358082,0.22674 -0.75636,0.3874 -0.885177,0.35681 -0.128815,-0.0305 -16.04437,-0.56965 -35.36733,-1.19739 -19.32299,-0.62783 -35.2648561,-1.28457 -35.4263689,-1.4596 -0.161514,-0.17503 -0.4374985,-28.18869 -0.6134488,-62.25273 L 4.3772619,161.23956 5.4593754,161.0193 c 1.9291067,-0.39251 54.6327456,-1.4681 68.0338336,-1.46433 z m -34.208363,7.64066 c -2.120323,-0.012 -3.929816,0.48099 -4.251599,1.31954 -0.399895,1.04211 0.773441,3.83231 2.460658,5.85178 1.790199,2.14273 1.829365,2.31021 1.051922,4.46021 -0.719334,1.98927 -0.702829,2.00711 6.815187,7.41148 l 6.150273,4.42108 3.004115,5.01121 c 1.652612,2.7564 3.106626,5.54246 3.230557,6.19076 0.221676,1.15962 0.192133,1.17225 -1.833485,0.78294 -3.405478,-0.65453 -5.201709,-0.46468 -8.068158,0.85361 -2.030386,0.93378 -2.687999,1.4679 -2.568391,2.08462 0.137594,0.70946 0.700107,0.83023 3.900273,0.8392 2.056971,0.005 4.602167,0.26876 5.656221,0.58395 3.37402,1.00895 3.611365,1.57661 4.091032,9.80833 0.528841,9.07555 -0.294254,15.51382 -2.767382,21.64706 -0.880013,2.1824 -1.600183,4.22529 -1.600183,4.53979 0,0.31452 0.936198,1.39576 2.080514,2.40302 1.904856,1.67672 2.531361,2.62431 3.253888,4.92339 0.141689,0.45087 0.366345,0.81998 0.49954,0.81998 0.133196,0 0.900935,-1.3046 1.705855,-2.89913 2.596884,-5.1444 3.103985,-5.62196 5.794145,-5.44898 1.933469,0.12428 2.363574,0.007 2.500454,-0.6807 0.115284,-0.57974 -0.270835,-0.98412 -1.276303,-1.33463 -1.677355,-0.58473 -1.714322,-0.87569 -0.624426,-4.96592 0.552454,-2.0733 1.160716,-3.29364 1.873969,-3.76098 0.953511,-0.62477 1.0551,-1.06151 1.048492,-4.50275 -0.004,-2.09589 -0.312243,-5.07514 -0.685502,-6.621 -0.373256,-1.54581 -0.686612,-4.46901 -0.695787,-6.49609 -0.01501,-3.31292 0.173231,-4.10669 1.857501,-7.84722 2.098049,-4.65947 2.126591,-4.82423 1.23513,-7.03065 -0.351016,-0.86878 -1.215396,-3.11443 -1.920631,-4.99061 -1.245389,-3.31319 -1.439167,-3.54339 -6.739704,-8.00916 -3.001572,-2.52884 -8.57448,-7.69123 -12.384946,-11.47162 -6.765558,-6.71217 -6.996383,-6.88935 -9.819988,-7.54804 -0.981649,-0.229 -2.009458,-0.33895 -2.973241,-0.34447 z m -15.01921,4.78615 c -1.550229,0 -7.556082,3.1591 -8.163536,4.29414 -0.869786,1.62521 -0.145762,1.8332 3.672459,1.05535 0.66895,-0.13629 1.05398,-0.55568 1.05398,-1.14867 0,-0.678 0.71056,-1.25949 2.591033,-2.11963 2.638729,-1.20697 2.994314,-2.08119 0.846064,-2.08119 z m 27.362987,8.90118 c 0.505587,-0.0119 1.532585,0.62842 2.927263,1.85407 2.531469,2.22468 1.555639,2.55659 -1.313357,0.44671 -1.081313,-0.7952 -1.965918,-1.63861 -1.965918,-1.87397 0,-0.28121 0.122202,-0.42138 0.352012,-0.42681 z m -16.716145,2.82983 c -2.162812,0.007 -4.704663,0.29618 -6.670401,0.84126 -4.253444,1.17945 -7.669638,4.12493 -10.338058,8.91354 l -1.991994,3.57571 -0.313586,11.00846 c -0.235554,8.27425 -0.158348,11.88031 0.310157,14.52104 0.342815,1.93229 1.004225,6.45701 1.470491,10.05466 l 0.848124,6.5414 2.959515,4.53431 2.959515,4.5343 5.250684,2.38655 c 5.420723,2.46391 7.362891,2.81174 11.691216,2.09631 1.43018,-0.2364 1.756633,-0.48807 1.756633,-1.35591 0,-0.83532 -0.202469,-1.01335 -0.936644,-0.82137 -0.670752,0.17541 -0.936639,0.0145 -0.936639,-0.56678 0,-0.5813 0.265887,-0.7422 0.936639,-0.56679 0.765717,0.20023 0.933746,0.0179 0.920174,-0.99908 -0.0092,-0.68439 -0.317986,-1.77197 -0.686183,-2.41606 -0.368201,-0.64409 -0.677062,-1.94378 -0.686186,-2.88884 -0.02544,-2.6328 -0.374085,-3.08535 -2.873743,-3.72599 -2.641265,-0.67693 -4.182391,-1.9912 -3.33211,-2.84149 0.399742,-0.39975 1.097986,-0.35517 2.776301,0.17705 2.203495,0.69872 5.538453,0.64157 5.998627,-0.10291 0.315856,-0.51107 -4.959818,-1.03944 -8.440757,-0.84538 -2.203347,0.12283 -2.810612,0.0119 -2.810612,-0.51601 0,-0.99657 6.061938,-2.44837 7.670171,-1.83692 1.489673,0.56637 4.095414,0.13949 4.427265,-0.72529 0.211313,-0.55069 0.05613,-1.57477 -0.680009,-4.48353 -0.106613,-0.42126 0.21889,-0.75176 0.833027,-0.84606 0.579284,-0.089 1.24151,-0.71749 1.556267,-1.47737 0.489085,-1.18076 0.346549,-1.72165 -1.327768,-5.05169 -2.713112,-5.39611 -3.344464,-8.33412 -3.344464,-15.5606 0,-6.00014 -0.03138,-6.19193 -1.210428,-7.371 l -1.211117,-1.21111 0.572278,-3.84606 c 0.750167,-5.0423 0.340847,-7.89431 -1.236504,-8.613 -0.774675,-0.35297 -2.227694,-0.52006 -3.909881,-0.51532 z m -19.084166,5.46271 c -0.167369,-0.0106 -0.361147,7.1e-4 -0.581201,0.0329 -1.107348,0.16251 -1.640628,0.71746 -2.825019,2.93961 -1.041599,1.95424 -1.374235,3.08236 -1.160341,3.93459 0.337288,1.34386 0.396521,1.37225 1.57205,0.74313 0.464309,-0.24849 0.976835,-1.1129 1.138382,-1.92063 0.161543,-0.80773 0.821654,-2.09642 1.467063,-2.86345 1.439865,-1.71117 1.560637,-2.795 0.389066,-2.86619 z m 51.980545,5.95471 c 0.59285,0.0798 1.846527,2.90006 1.64547,3.84814 -0.104037,0.49057 -0.307752,0.40691 -0.752056,-0.31085 -1.072165,-1.73208 -1.493887,-3.21164 -1.002518,-3.51532 0.03302,-0.0205 0.06958,-0.0272 0.109109,-0.0219 z m 2.260977,5.42635 c 0.560808,0 0.516436,2.65259 -0.08028,4.80123 -0.557488,2.00743 -1.380604,2.34038 -1.380604,0.55856 0,-1.75702 0.982017,-5.35979 1.460886,-5.35979 z m -58.003187,0.58464 c -0.245637,0.0155 -0.656492,1.18991 -1.060841,3.51188 -0.303054,1.74026 -0.957491,3.82148 -1.4540277,4.62489 -1.1010538,1.78155 -1.1321989,3.08498 -0.1440966,5.98491 0.4407005,1.29339 0.6488583,2.89815 0.497482,3.83096 -0.283215,1.74526 0.1359283,2.04821 1.1459283,0.82891 0.460909,-0.55642 0.647597,-2.3132 0.659426,-6.20654 0.009,-2.98684 0.20072,-7.09776 0.426121,-9.13518 0.255839,-2.31256 0.175645,-3.45538 -0.06999,-3.43983 z m 19.199448,1.31746 c 1.275737,0.021 1.963023,0.32138 3.361615,1.20495 2.132032,1.34695 2.727725,2.65219 1.436873,3.14753 -0.379813,0.14574 -2.477046,0.0259 -4.660567,-0.26624 l -3.970264,-0.53111 -2.592404,1.72164 c -2.750789,1.82641 -3.310761,2.00947 -3.786369,1.23993 -0.541599,-0.87633 1.424253,-3.46737 3.697163,-4.8726 1.619278,-1.00113 3.00085,-1.43884 4.994051,-1.58303 0.604247,-0.0437 1.094653,-0.0681 1.519902,-0.0611 z m 2.496336,7.50549 c 0.312073,-0.004 0.668476,0.13501 1.09721,0.40623 0.573969,0.36307 0.584514,0.61117 0.06587,1.58027 -1.092418,2.0412 -4.214123,2.80245 -6.555811,1.59814 -1.645145,-0.8461 -2.336334,-2.12906 -1.451277,-2.69328 1.028242,-0.65548 1.198179,-0.58537 1.80192,0.73971 0.751891,1.65022 2.85743,1.43404 3.723924,-0.38221 0.401475,-0.84154 0.798042,-1.24268 1.318159,-1.24886 z m 18.806264,0.0721 c -0.611512,-0.0211 -1.087882,0.35082 -1.223466,1.06566 -0.333743,1.75955 -2.410568,1.93685 -2.410568,0.20585 0,-1.16978 -0.727017,-1.52818 -1.864363,-0.91949 -1.498495,0.80198 -1.111541,1.84985 1.044374,2.82845 2.425825,1.10112 2.414879,1.10049 4.343549,0.18527 1.92133,-0.91173 2.444659,-2.06454 1.312671,-2.89226 -0.419391,-0.30667 -0.835289,-0.46078 -1.202197,-0.47348 z m 13.916511,8.53682 c 0.02824,0.0106 0.05946,0.0547 0.09195,0.13519 0.129943,0.32204 0.129943,0.84928 0,1.17131 -0.129944,0.32207 -0.236734,0.0582 -0.236734,-0.58599 0,-0.48308 0.06006,-0.75207 0.144784,-0.72051 z m 0.718435,9.54896 v 1.59057 c 0,1.8943 -1.239645,6.28745 -1.887006,6.68755 -0.251423,0.15539 -0.672404,-0.28367 -0.93527,-0.97506 -0.694123,-1.82569 -0.0417,-4.43909 1.489706,-5.9705 z m -44.722769,5.84629 c 0.777869,0.0845 4.411095,3.38758 4.685266,4.33463 0.155161,0.53594 0.21517,1.90657 0.133806,3.04528 -0.129531,1.81299 -0.213733,1.9533 -0.677947,1.1329 -0.291569,-0.51527 -0.674255,-1.60957 -0.850871,-2.43253 -0.176616,-0.82295 -1.065819,-2.47146 -1.975526,-3.66285 -0.909708,-1.19142 -1.552895,-2.2664 -1.430008,-2.38929 0.02463,-0.0247 0.06342,-0.0337 0.115284,-0.0282 z m -9.998398,1.57548 c -0.324647,0.0487 -0.611301,0.97761 -1.207685,3.05559 -0.422432,1.47188 -0.892408,2.9999 -1.044371,3.39592 -0.179278,0.46719 -0.0066,0.72049 0.491306,0.72049 0.422112,0 0.888529,-0.31618 1.036828,-0.70265 0.551228,-1.43648 0.867393,-0.6274 0.714317,1.828 -0.176876,2.83713 0.566085,4.85489 1.501372,4.07867 0.3896,-0.32334 0.551997,-1.88463 0.503658,-4.83759 -0.05453,-3.3319 -0.291523,-4.78995 -1.005261,-6.18116 -0.462071,-0.90067 -0.737662,-1.39518 -0.990164,-1.35727 z m 69.242895,10.4506 h 4.868479 c 4.00727,0 4.918519,0.13119 5.152559,0.74107 0.533142,1.38936 0.310513,9.35096 -0.277903,9.93939 -0.309171,0.30916 -1.204822,0.52118 -1.990622,0.47072 -0.785798,-0.0505 -2.851511,-0.16581 -4.590574,-0.25594 l -3.161939,-0.16401 v -5.36527 z m 21.437784,0.07 c 1.80651,0.0161 2.54662,0.18227 2.86687,0.56816 0.37118,0.44723 0.51146,2.28301 0.42201,5.52036 l -0.13381,4.84995 -4.81015,0.13381 c -3.705348,0.1029 -4.865734,-0.012 -5.053065,-0.50023 -0.133742,-0.34853 -0.182356,-2.83257 -0.108419,-5.52036 l 0.134495,-4.887 4.495879,-0.13311 c 0.8632,-0.0256 1.58401,-0.0369 2.18619,-0.0316 z m 10.27218,0.007 c 0.66076,-0.007 1.4139,0.0251 2.09972,0.0953 1.37165,0.14042 3.18514,0.26497 4.03065,0.27654 l 1.53774,0.0206 -0.13244,5.50389 -0.13175,5.50457 -3.27927,0.0645 c -1.80309,0.0354 -4.0158,-0.0697 -4.91789,-0.23399 h -7e-4 l -1.63929,-0.29918 -0.13244,-5.25686 c -0.13186,-5.24042 -0.12839,-5.25828 1.01967,-5.54643 0.31672,-0.0795 0.88521,-0.12283 1.54597,-0.12894 z m 12.3225,0.36093 5.03591,0.13312 5.03591,0.13239 0.13173,5.50457 0.13172,5.50389 h -4.85545 c -2.67045,0 -4.9959,-0.14045 -5.16766,-0.31222 -0.17175,-0.17176 -0.31221,-2.70837 -0.31221,-5.63701 z m -39.113892,1.7882 c -2.301168,0 -3.989932,3.20129 -2.483303,4.70792 0.927337,0.92733 1.187031,0.65289 1.130833,-1.19465 -0.04736,-1.55721 0.08458,-1.7725 1.158278,-1.8973 1.807592,-0.21012 2.616739,0.99535 1.654393,2.46409 -0.416937,0.63632 -0.757548,1.26947 -0.757548,1.40736 0,0.46667 1.214321,0.25481 1.77996,-0.31085 1.592097,-1.59208 -0.126889,-5.17657 -2.482613,-5.17657 z m 41.221852,0.81999 -0.14341,2.52035 c -0.21343,3.74324 -0.10068,3.87064 3.29918,3.70884 l 2.93412,-0.13998 v -3.04461 -3.0446 h -3.0446 z m 2.34744,0.7404 c 0.22494,-0.009 0.47562,0.0593 0.74588,0.22643 0.40732,0.25175 0.32991,0.51646 -0.28133,0.96341 -0.69564,0.50866 -0.73887,0.74212 -0.24772,1.33394 0.75798,0.91331 1.41766,0.91992 1.41766,0.0143 0,-0.38647 0.22479,-0.70265 0.49955,-0.70265 0.27474,0 0.43284,0.58013 0.35132,1.28865 -0.18282,1.58882 -1.71827,1.95614 -2.86756,0.68619 -1.29346,-1.42924 -0.83248,-3.75929 0.3822,-3.81039 z m -13.5645,0.0145 c -0.17305,-0.003 -0.3581,0.005 -0.55375,0.0281 -1.02633,0.11725 -1.38395,0.43156 -1.50754,1.32502 -0.0891,0.6441 -0.35049,1.40118 -0.5812,1.68253 -0.6485,0.79079 0.0782,1.18656 1.89798,1.03338 1.29752,-0.10914 1.65645,-0.34267 1.65645,-1.07662 0,-0.51527 0.18186,-1.21863 0.40417,-1.56313 0.5145,-0.7973 -0.10478,-1.40867 -1.31611,-1.42932 z m -12.97643,0.45631 c -0.21885,0.007 -0.50654,0.22742 -0.86734,0.66216 -0.73916,0.89063 -1.90743,0.89653 -3.072739,0.0151 -1.37918,-1.04316 -1.611847,-0.87989 -1.611847,1.12947 0,1.8323 0.01542,1.84839 1.990626,2.02629 1.09496,0.0987 2.13205,0.21574 2.3042,0.26075 0.17216,0.045 0.64646,-0.0459 1.05398,-0.20241 0.50009,-0.1919 0.74108,-0.87718 0.74108,-2.10796 0,-1.20424 -0.17323,-1.79353 -0.53796,-1.7834 z m -51.348574,0.89685 c -0.18244,0 -1.71012,0.94999 -3.394556,2.11138 -2.704199,1.86451 -3.656926,2.22441 -8.142954,3.07479 l -5.080513,0.96341 -3.808323,-1.50412 c -2.094468,-0.82729 -4.810602,-2.03448 -6.035682,-2.68229 -2.436821,-1.28859 -2.662693,-1.22265 -3.377399,0.98468 -0.414661,1.28065 -1.263659,1.90976 -5.871682,4.35246 l -5.387234,2.85591 -0.126945,9.22026 c -0.09847,7.14652 0.0079,9.27134 0.472095,9.44946 0.86674,0.3326 43.263639,1.50529 52.11984,1.44167 l 7.495197,-0.0535 0.125575,-10.16169 c 0.09799,-7.8925 -0.01023,-10.28901 -0.485818,-10.73331 -0.336803,-0.31462 -4.390085,-1.85529 -9.00686,-3.42338 -8.241028,-2.79904 -8.40072,-2.87909 -8.778361,-4.37373 -0.211562,-0.83733 -0.533939,-1.52195 -0.716376,-1.52195 z m 31.280412,10.53841 c 13.763164,0.0137 120.783532,2.05679 121.677692,2.35568 0.4637,0.15502 0.56584,3.18153 0.46867,13.9117 l -0.12416,13.71342 -4.91856,0.0652 c -2.70521,0.0354 -30.31925,-0.75515 -61.36481,-1.75664 -31.04556,-1.00149 -56.710187,-1.91986 -57.032238,-2.04072 -0.709489,-0.26619 -0.861751,-25.78733 -0.156448,-26.22322 0.02951,-0.0182 0.532365,-0.0263 1.449907,-0.0254 z"
       id="rect845"
       inkscape:connector-curvature="0"
       sodipodi:nodetypes="ccccssccccsscccscscccccccccccccccscsccccsscssscccscsccccccccscccsscsccccsccscccsccccccccccccsccsccsccccccccsccccccccccsccccccccsccccccsscssccccccccsccccccccccscssccccsscsscssccccccsccsccsccccccccccscccscccsccccccssscccscccscsccsccscsccccccscscccscccccssscccscsscccccssscccccscccscccscsccscccccccccccscscscsccccccccccsssccsccccsccsccscccccsccccccsccsccscsccscccscccscscscscssccscscccsccscccsccccccscscccccccccscccccsscccsccccscccccccccscsssccccscssccccccccsccccccccccsscsccccccsccsccccccccccccsccscscccscsccscccccccccccccccccccccccccsccccccscscscsccscsccccccccccscsscccccsccscccccscccscsccccscccccccccscssccccsccs" />
  </g>
</svg>
