<?xml version="1.0" encoding="UTF-8" standalone="no"?>
<!-- Created with Inkscape (http://www.inkscape.org/) -->

<svg
   xmlns:dc="http://purl.org/dc/elements/1.1/"
   xmlns:cc="http://creativecommons.org/ns#"
   xmlns:rdf="http://www.w3.org/1999/02/22-rdf-syntax-ns#"
   xmlns:svg="http://www.w3.org/2000/svg"
   xmlns="http://www.w3.org/2000/svg"
   xmlns:sodipodi="http://sodipodi.sourceforge.net/DTD/sodipodi-0.dtd"
   xmlns:inkscape="http://www.inkscape.org/namespaces/inkscape"
   width="100mm"
   height="161.8mm"
   viewBox="0 0 100 161.8"
   version="1.1"
   id="svg8"
   inkscape:version="0.92.4 5da689c313, 2019-01-14"
   sodipodi:docname="card--main__logo.svg">
  <defs
     id="defs2" />
  <sodipodi:namedview
     id="base"
     pagecolor="#ffffff"
     bordercolor="#666666"
     borderopacity="1.0"
     inkscape:pageopacity="0.0"
     inkscape:pageshadow="2"
     inkscape:zoom="0.98994949"
     inkscape:cx="23.73364"
     inkscape:cy="355.79689"
     inkscape:document-units="mm"
     inkscape:current-layer="layer1"
     showgrid="false"
     inkscape:window-width="1920"
     inkscape:window-height="1080"
     inkscape:window-x="0"
     inkscape:window-y="0"
     inkscape:window-maximized="1" />
  <metadata
     id="metadata5">
    <rdf:RDF>
      <cc:Work
         rdf:about="">
        <dc:format>image/svg+xml</dc:format>
        <dc:type
           rdf:resource="http://purl.org/dc/dcmitype/StillImage" />
        <dc:title></dc:title>
      </cc:Work>
    </rdf:RDF>
  </metadata>
  <g
     inkscape:label="Ebene 1"
     inkscape:groupmode="layer"
     id="layer1"
     transform="translate(0,-135.2)">
    <path
       style="fill:#2f2933;fill-opacity:1;stroke-width:0.06268774"
       d="m 34.261784,250.88366 -7.477636,-2.90267 -0.02146,-0.024 -0.02146,-0.024 -4.090095,-5.48518 -4.090094,-5.48518 -0.05231,-0.12537 -0.05231,-0.12538 -0.941267,-5.70458 -0.941267,-5.70459 -0.534956,-4.70158 -0.534955,-4.70158 -0.948795,-3.43316 -0.948795,-3.43316 0.753209,-3.21174 0.753209,-3.21174 -0.189319,-6.55087 -0.189319,-6.55086 0.26206,-3.47917 0.262059,-3.47917 0.03314,-0.22626 0.03314,-0.22626 2.714931,-4.39939 2.71493,-4.39938 3.910278,-3.07569 3.910277,-3.07568 0.125376,-0.0537 0.125375,-0.0537 5.171738,-1.013 5.171738,-1.01301 3.117255,0.0898 3.117261,0.0898 2.066401,0.65421 2.066407,0.65422 0.02942,0.12538 0.02942,0.12537 0.361814,3.17122 0.361815,3.17122 -0.941457,4.70751 -0.941451,4.70751 1.478961,0.50827 1.47896,0.50825 0.07047,0.0445 0.07046,0.0445 0.424502,3.68175 0.424497,3.68173 -0.190126,5.0632 -0.190126,5.0632 1.218728,3.8553 1.218717,3.85529 0.976281,1.7866 0.976285,1.7866 1.338833,2.20308 1.338832,2.20308 0.03495,0.0911 0.03495,0.0911 -0.465635,1.67372 -0.465626,1.67372 -0.02325,0.0181 -0.02325,0.0181 -0.941138,0.37529 -0.941138,0.37529 -0.893767,-0.37408 -0.89377,-0.3741 -0.02421,0.0248 -0.02429,0.0248 -0.0716,0.75225 -0.0716,0.75226 -0.0271,0.13161 -0.0271,0.13161 0.759564,0.1015 0.759561,0.1015 0.03213,0.0321 0.03213,0.0321 -0.125676,0.34116 -0.125677,0.34117 0.466004,2.42595 0.466005,2.42597 -0.05183,0.0472 -0.05183,0.0472 -2.215366,0.73583 -2.21537,0.73583 -1.759695,-0.74057 -1.759695,-0.74059 -0.09964,0.009 -0.09964,0.009 -5.391146,1.25853 -5.391145,1.25853 -0.137732,0.0463 -0.137732,0.0463 1.070946,0.7836 1.070946,0.7836 0.101575,0.0498 0.101575,0.0498 2.144141,-0.47455 2.144134,-0.47454 3.371942,0.12087 3.371942,0.12087 1.08382,0.3427 1.083824,0.34269 0.8595,-0.27944 0.859501,-0.27945 2.006009,0.0687 2.006005,0.0687 0.350583,-6.3e-4 0.350575,-6.3e-4 1.303981,0.81141 1.303982,0.81141 0.06938,0.0733 0.06938,0.0733 -0.12538,-0.0341 -0.125373,-0.0341 -2.601544,-0.6061 -2.601536,-0.60612 -0.125373,6.3e-4 -0.125381,6.3e-4 -1.034348,0.43989 -1.034351,0.43991 -2.538854,0.22921 -2.538853,0.22921 -2.303731,-0.6853 -2.30373,-0.68531 -1.850549,0.42008 -1.850549,0.4201 -0.02283,0.0249 -0.02283,0.0249 1.669597,1.22056 1.669595,1.22056 3.383275,0.7558 3.383282,0.7558 0.04561,0.18637 0.04562,0.18637 0.16559,3.00901 0.165589,3.00901 0.94308,1.42441 0.943086,1.42443 0.281977,2.53704 0.281976,2.53704 -0.456749,0.83415 -0.45675,0.83415 -0.0214,0.0259 -0.0214,0.0259 -5.156301,0.26983 -5.156298,0.26983 -0.344783,-0.002 -0.344783,-0.002 -7.477635,-2.90267 z m 18.604712,0.0304 v -0.0592 l -0.443607,-1.24803 -0.443596,-1.24803 -1.158953,0.36053 -1.158952,0.36052 -0.03588,0.0359 -0.03587,0.0359 0.363407,0.81684 0.363407,0.81684 0.256343,0.005 0.256343,0.005 0.97166,0.0791 0.971662,0.0791 0.04702,0.009 0.04702,0.009 z M 31.489975,240.35811 v -5.7256 l -6.279481,-5.00967 -6.27948,-5.00968 -0.09799,-0.0584 -0.09799,-0.0583 1.006458,1.09268 1.00646,1.09269 3.694112,4.13833 3.694112,4.13833 0.188063,0.21909 0.188063,0.2191 1.472288,5.3435 1.472289,5.3435 h 0.01655 0.01655 z m 18.017559,-19.31756 0.872456,-0.15743 0.01587,-0.0158 0.01588,-0.0159 -0.878136,-0.61592 -0.878131,-0.61593 -0.02053,0.0207 -0.02053,0.0207 -0.07095,0.65822 -0.07095,0.65822 -0.02813,0.1351 -0.02812,0.1351 0.109409,-0.0247 0.109403,-0.0247 z m -9.991719,-17.41923 2.164541,-0.98534 0.863523,-1.72842 0.86353,-1.72841 -0.01906,-0.0183 -0.01905,-0.0183 -2.4994,-0.22829 -2.4994,-0.22828 -0.02289,0.0229 -0.02289,0.0229 0.356116,1.20875 0.356117,1.20875 -0.09059,0.0524 -0.09059,0.0524 -0.940316,0.59905 -0.940316,0.59905 -1.441818,-0.001 -1.441817,-0.001 -0.557965,-1.22067 -0.557963,-1.22068 0.156721,-0.70511 0.156722,-0.7051 -0.01507,-0.0192 -0.01507,-0.0192 -1.954687,0.97774 -1.954688,0.97773 0.505596,0.54606 0.505595,0.54605 0.925085,0.95307 0.925084,0.95307 2.538854,0.55613 2.538853,0.55613 0.03134,-0.009 0.03134,-0.009 2.164537,-0.98535 z m -3.496651,-3.18644 0.861956,-0.13903 v -0.0351 -0.0351 l -0.740289,-0.73836 -0.74029,-0.73837 -0.20054,0.86472 -0.200539,0.86472 5.01e-4,0.047 5.01e-4,0.047 0.07836,7.4e-4 0.07836,7.4e-4 0.861956,-0.13904 z m -8.374024,-4.35585 4.043248,-2.36198 5.840457,0.73581 5.840456,0.73581 0.09708,0.0278 0.09707,0.0278 1.219371,-1.03695 1.219364,-1.03696 0.01351,-0.0446 0.0135,-0.0447 -3.429991,-2.04546 -3.429985,-2.04546 -4.106046,0.1872 -4.106047,0.1872 -3.27144,1.75682 -3.271439,1.75681 -1.292899,2.03335 -1.292898,2.03335 0.01948,0.0553 0.01948,0.0553 0.810651,0.6927 0.810652,0.69269 h 0.05659 0.05659 z m 49.645983,56.39883 -0.03295,-0.094 -0.603654,-2.91498 -0.603638,-2.91498 -0.0733,-0.073 -0.0733,-0.073 -3.291106,-2.68007 -3.291107,-2.68005 0.0059,-0.0992 0.0059,-0.0992 2.354929,-5.39114 2.354922,-5.39114 1.313333,-7.45985 1.31334,-7.45984 -0.681351,-5.39114 -0.681352,-5.39114 0.04006,-3.14355 0.04006,-3.14356 -1.527251,-1.2677 -1.527244,-1.26771 -0.07574,-0.0291 -0.07574,-0.029 -4.139405,-0.92535 -4.139405,-0.92535 -3.146512,0.67976 -3.146528,0.67976 -0.06827,-0.002 -0.06827,-0.002 -0.780684,-1.14869 -0.780685,-1.1487 -0.01599,-0.0558 -0.01599,-0.0557 2.551966,-1.20114 2.551951,-1.20112 3.028714,-0.79997 3.028706,-0.79998 3.766692,1.0461 3.766692,1.04611 0.03058,-0.0306 0.03058,-0.0306 -0.170263,-1.55324 -0.170257,-1.55324 -0.202486,-0.31343 -0.202487,-0.31345 -4.122375,-6.27694 -4.122368,-6.27695 -8.726378,-5.84042 -8.726375,-5.84043 -0.719579,-0.9047 -0.719586,-0.90471 v -0.0797 -0.0797 l 1.08681,-2.11899 1.086811,-2.11899 -0.02906,-0.0751 -0.02907,-0.0751 -2.083841,-2.19407 -2.083841,-2.19407 -0.310254,-0.3197 -0.310254,-0.3197 -1.125903,-2.87248 -1.125897,-2.87249 0.04877,-0.0435 0.04877,-0.0435 3.281364,-0.73881 3.281365,-0.73882 4.36654,0.92964 4.366543,0.92965 3.009011,2.99023 3.009012,2.99024 2.41348,2.24255 2.413466,2.24255 5.046366,4.46908 5.046366,4.46909 6.417924,4.98207 6.417916,4.98207 2.752017,6.82102 2.75202,6.82102 -0.0175,0.0675 -0.0175,0.0675 -2.798868,5.54454 -2.79887,5.54456 -0.123855,3.60454 -0.123862,3.60455 1.190262,4.82696 1.19027,4.82695 0.06427,4.52404 0.06427,4.52404 -0.03369,0.0878 -0.03369,0.0878 -1.409705,0.36341 -1.409704,0.3634 -0.394237,1.29354 -0.394236,1.29354 -1.169443,3.82395 -1.169435,3.82396 0.0052,0.009 0.0052,0.009 2.319449,0.48535 2.319449,0.48536 0.05109,0.0455 0.05109,0.0455 -0.29369,1.24651 -0.293682,1.24652 -0.04798,0.0523 -0.04798,0.0523 -3.000571,-0.47767 -3.000564,-0.47768 -0.110269,-0.0135 -0.110261,-0.0135 -2.17347,2.8523 -2.173471,2.85229 -1.562805,3.3538 -1.562798,3.35379 -0.08244,0.18806 -0.08243,0.18806 -0.03295,-0.094 z m 8.187155,-21.58026 1.298458,-3.52619 0.516877,-3.99827 0.516886,-3.99827 -0.421869,-4.45854 -0.421869,-4.45854 -1.729189,-3.89268 -1.729197,-3.89266 -0.0351,-0.0313 -0.03509,-0.0313 0.04946,0.12537 0.04946,0.12538 0.527199,2.00601 0.527199,2.00601 0.969192,3.81398 0.969192,3.81398 v 4.42632 4.42632 l -0.05479,-0.0595 -0.05479,-0.0595 -0.361881,-1.01989 -0.361896,-1.01988 -0.02199,0.022 -0.02199,0.022 -0.124943,2.84716 -0.124937,2.84716 -6.22e-4,0.37299 -6.29e-4,0.373 -0.05486,-0.0595 -0.05486,-0.0595 -0.441823,-1.34778 -0.441815,-1.3478 -0.396621,-3.2255 -0.396628,-3.22551 -0.04583,0.24784 -0.04583,0.24784 -0.160216,2.44482 -0.160224,2.44482 -0.279615,3.10266 -0.279614,3.10266 0.735719,2.21013 0.735735,2.21013 h 0.03243 0.03243 l 1.298458,-3.52619 z m 5.472447,-37.28353 1.292468,-4.41949 0.0328,-0.16251 0.0328,-0.16251 -1.297258,-3.53607 -1.297266,-3.53606 -0.07837,-0.18806 -0.07837,-0.18807 -1.491305,-2.30544 -1.491304,-2.30543 -0.01873,0.0187 -0.01873,0.0187 0.593406,2.59981 0.593406,2.59982 1.411119,2.49222 1.411111,2.49221 -0.846847,3.15001 -0.846855,3.15001 0.34437,2.25676 0.344363,2.25676 0.03769,0.15672 0.03769,0.15672 0.02066,-0.0627 0.02066,-0.0627 z m -13.19944,-23.22064 -0.09179,-0.0889 -1.686194,-1.56965 -1.686194,-1.56966 -4.858903,-3.40351 -4.858894,-3.40352 -0.09708,-0.0574 -0.09707,-0.0574 0.246859,0.33947 0.246859,0.33947 0.389994,0.53059 0.389994,0.53059 -0.01836,0.0184 -0.01836,0.0184 -1.436188,-0.4963 -1.436189,-0.49631 -0.125373,-0.0472 -0.125373,-0.0472 5.01501,3.68596 5.015017,3.68597 0.09403,0.07 0.09403,0.07 -0.06893,-0.094 -0.06893,-0.094 -0.771148,-1.03435 -0.771155,-1.03435 -0.06893,-0.0886 -0.06893,-0.0886 0.125373,0.0689 0.12538,0.0688 3.322448,2.1633 3.322448,2.1633 0.0291,0.004 0.0291,0.004 -0.09179,-0.0889 z m -67.073639,78.11745 v -0.0176 l -0.560737,-2.79975 -0.5607365,-2.79976 0.5618465,-1.96254 0.561847,-1.96253 0.310711,-1.62628 0.310712,-1.62627 -0.02106,-0.021 -0.02106,-0.021 -1.6800675,2.8384 -1.6800695,2.8384 -0.06819,0.0755 -0.06819,0.0755 -0.595534,0.0666 -0.595533,0.0666 -0.172391,0.0288 -0.172392,0.0288 v -0.0841 -0.0841 l 0.838374,-2.37481 0.838375,-2.37481 1.335852,-4.05797 1.335852,-4.05798 0.03259,0.0326 0.03258,0.0326 0.07715,1.79998 0.07715,1.79997 0.0067,0.43881 0.0067,0.43882 0.380917,0.2821 0.380916,0.28209 0.08254,0.12537 0.08254,0.12538 0.719359,1.75526 0.719358,1.75525 -0.329977,1.64529 -0.329977,1.64528 0.236166,3.33839 0.236165,3.3384 -0.01017,0.0104 -0.01017,0.0104 -1.109178,0.50674 -1.109178,0.50675 h -0.03487 -0.03487 z m -7.0755195,-34.05725 0.1022264,-0.12126 1.5119831,-1.75108 1.511983,-1.75106 0.0033,-0.28628 0.0033,-0.28629 0.08311,-1.28509 0.08311,-1.2851 -0.598543,-0.93209 -0.598544,-0.93208 -0.8100585,-2.7972 -0.8100589,-2.7972 0.078575,-0.12601 0.078576,-0.12602 1.5003674,-1.96965 1.500368,-1.96965 0.02554,-0.0677 0.02553,-0.0677 0.961398,-4.52545 0.961397,-4.52545 -0.530916,-3.98243 -0.530917,-3.98243 2.593955,-3.91869 2.593954,-3.91869 0.03134,-7.4e-4 0.03134,-7.4e-4 0.686855,0.84601 0.686855,0.84602 0.03405,-10e-4 0.03405,-0.001 2.032383,-2.88542 2.032384,-2.88543 0.04714,-0.0292 0.04714,-0.0292 -0.460139,1.01938 -0.460138,1.01939 -1.314578,2.90556 -1.314577,2.90556 -1.182441,1.06439 -1.18244,1.06441 -0.136683,0.13608 -0.136684,0.1361 -0.670724,2.63288 -0.670725,2.63289 -0.03888,0.0437 -0.03888,0.0437 -1.030821,-1.12334 -1.0308205,-1.12335 -0.02803,0.0281 -0.02803,0.0281 0.5822965,4.21737 0.582295,4.21737 -1.1609245,6.5678 -1.160923,6.5678 0.836406,2.61595 0.8364065,2.61596 0.0018,0.0742 0.0018,0.0742 -0.9407555,2.37062 -0.940755,2.37061 -1.826247,1.06569 -1.8262476,1.0657 -0.3830566,0.21529 -0.3830567,0.2153 0.1022264,-0.12127 z m 58.4013075,-10.99636 -1.864758,-0.5501 -0.393971,-0.30542 -0.39397,-0.30543 -1.045942,-0.81494 -1.045943,-0.81494 -0.0015,-0.0313 -0.0015,-0.0313 0.547686,-0.31818 0.547686,-0.31818 1.141189,-0.67534 1.141188,-0.67534 0.674081,-0.054 0.674081,-0.054 0.01414,0.0141 0.01414,0.0141 -0.338232,1.28408 -0.338225,1.28408 0.076,0.0692 0.07601,0.0692 1.049267,0.70921 1.049267,0.7092 1.097793,-0.74409 1.097786,-0.7441 -7.41e-4,-0.0657 -7.4e-4,-0.0657 -0.302997,-1.28509 -0.302996,-1.2851 -0.02517,-0.094 -0.02517,-0.094 0.354884,-0.0187 0.354877,-0.0187 2.215311,1.10693 2.215318,1.10694 0.03132,0.0306 0.03132,0.0306 -0.482959,0.44831 -0.48296,0.44831 -0.850327,0.80813 -0.850327,0.80814 -1.769749,0.4922 -1.769757,0.49221 -0.125373,-0.006 -0.125373,-0.006 -1.864765,-0.55008 z m 1.192424,-2.97314 -0.421587,-0.13847 -0.04524,-0.0452 -0.04524,-0.0452 0.496687,-0.49962 0.496694,-0.49963 h 0.0485 0.0485 v 0.68957 0.68956 l -0.07836,-0.006 -0.07836,-0.006 -0.421588,-0.13847 z m -49.149185,-42.99387 0.06193,-0.0784 1.260782,-1.62278 1.260783,-1.6228 4.71866,-2.12841 4.71866,-2.12841 2.288103,0.16683 2.288102,0.16684 0.111636,0.0427 0.111636,0.0427 -0.633922,0.58877 -0.633923,0.58876 -0.449374,0.21663 -0.449373,0.21663 -1.339253,-0.0249 -1.339253,-0.0249 0.150178,0.12827 0.150178,0.12829 0.309071,0.26328 0.309072,0.26329 -0.09166,0.0317 -0.09166,0.0317 -2.503038,0.4737 -2.503038,0.47369 -0.02605,0.0261 -0.02605,0.0261 0.69449,1.36585 0.694492,1.36585 -0.04603,0.0388 -0.04603,0.0388 -4.450829,0.5142 -4.450829,0.5142 -0.05469,-0.002 -0.05469,-0.002 0.06193,-0.0784 z"
       id="path88"
       inkscape:connector-curvature="0" />
    <path
       style="fill:#2f2933;fill-opacity:1;stroke:none;stroke-width:0.99999994px;stroke-linecap:butt;stroke-linejoin:miter;stroke-opacity:1"
       d="M 252.53906,435.76172 217.18359,458.99414 161.625,469.0957 110.10742,450.91406 95.567802,441.82227 v 0 l -5.253907,20.18098 -61.968192,30.11003 v 90.99024 L 349.60547,582.35938 V 480.19141 l -94.03711,-27.25782 z"
       transform="matrix(0.26458333,0,0,0.26458333,0,135.2)"
       id="path892"
       inkscape:connector-curvature="0"
       sodipodi:nodetypes="ccccccccccccc" />
  </g>
</svg>
