<?xml version="1.0" encoding="UTF-8" standalone="no"?>
<!-- Created with Inkscape (http://www.inkscape.org/) -->

<svg
   xmlns:dc="http://purl.org/dc/elements/1.1/"
   xmlns:cc="http://creativecommons.org/ns#"
   xmlns:rdf="http://www.w3.org/1999/02/22-rdf-syntax-ns#"
   xmlns:svg="http://www.w3.org/2000/svg"
   xmlns="http://www.w3.org/2000/svg"
   xmlns:sodipodi="http://sodipodi.sourceforge.net/DTD/sodipodi-0.dtd"
   xmlns:inkscape="http://www.inkscape.org/namespaces/inkscape"
   width="20mm"
   height="20mm"
   viewBox="0 0 20 20"
   version="1.1"
   id="svg8"
   inkscape:version="0.92.4 5da689c313, 2019-01-14"
   sodipodi:docname="internet.svg">
  <defs
     id="defs2" />
  <sodipodi:namedview
     id="base"
     pagecolor="#ffffff"
     bordercolor="#666666"
     borderopacity="1.0"
     inkscape:pageopacity="0.0"
     inkscape:pageshadow="2"
     inkscape:zoom="3.959798"
     inkscape:cx="48.807462"
     inkscape:cy="37.2575"
     inkscape:document-units="mm"
     inkscape:current-layer="layer1"
     showgrid="false"
     inkscape:window-width="1920"
     inkscape:window-height="1080"
     inkscape:window-x="0"
     inkscape:window-y="0"
     inkscape:window-maximized="1" />
  <metadata
     id="metadata5">
    <rdf:RDF>
      <cc:Work
         rdf:about="">
        <dc:format>image/svg+xml</dc:format>
        <dc:type
           rdf:resource="http://purl.org/dc/dcmitype/StillImage" />
        <dc:title></dc:title>
      </cc:Work>
    </rdf:RDF>
  </metadata>
  <g
     inkscape:label="Ebene 1"
     inkscape:groupmode="layer"
     id="layer1"
     transform="translate(0,-277)">
    <path
       style="opacity:1;fill:#000000;fill-opacity:1;fill-rule:nonzero;stroke:none;stroke-width:3.18035316;stroke-miterlimit:4;stroke-dasharray:none;stroke-opacity:1"
       d="m 19.999807,287.00005 a 10,10 0 0 0 -9.938914,-9.99681 3.7499999,10 0 0 1 1.854147,1.41283 10,8.7499999 0 0 0 -0.677492,-0.0904 2.4999999,10 0 0 0 -1.216978,-1.32137 1.2499999,10 0 0 1 0.589624,1.2728 10,8.7499999 0 0 0 -0.6102877,-0.0269 10,8.7499999 0 0 0 -0.6082241,0.0274 1.2499999,10 0 0 1 0.6082241,-1.27744 10,10 0 0 0 -0.049609,0.003 2.4999999,10 0 0 0 -1.1906249,1.32344 10,8.7499999 0 0 0 -0.6764602,0.092 3.7499999,10 0 0 1 1.6427979,-1.39061 5,10 0 0 0 -2.4122592,1.55649 10,8.7499999 0 0 0 -0.9239514,0.27027 6.2499999,10 0 0 1 3.1300208,-1.82211 7.5,10 0 0 0 -4.3046385,2.29133 10,8.7499999 0 0 0 -1.8055696,1.11311 8.7499999,10 0 0 1 5.9014518,-3.40186 10,10 0 0 1 0.6392333,-0.032 2.4999999,10 0 0 1 0.049609,-0.003 10,10 0 0 0 -9.9906136,9.81232 10,10 0 0 0 -0.008255,0.1633 10,10 0 0 0 -0.00103187917,0.0243 10,10 0 0 0 9.94873007917,9.99732 3.7499999,10 0 0 1 -1.8639631,-1.41335 10,8.7499999 0 0 0 0.6774921,0.0899 2.4999999,10 0 0 0 1.2169775,1.32136 1.2499999,10 0 0 1 -0.589624,-1.27227 10,8.7499999 0 0 0 0.6102879,0.0269 10,8.7499999 0 0 0 0.6082237,-0.0274 1.2499999,10 0 0 1 -0.6082237,1.27744 10,10 0 0 0 0.04961,-0.003 2.4999999,10 0 0 0 1.190625,-1.32343 10,8.7499999 0 0 0 0.676433,-0.092 3.7499999,10 0 0 1 -1.642797,1.39061 5,10 0 0 0 2.411756,-1.55649 10,8.7499999 0 0 0 0.923449,-0.27027 6.2499999,10 0 0 1 -3.130048,1.82211 7.5,10 0 0 0 4.305168,-2.29185 10,8.7499999 0 0 0 1.806099,-1.11207 8.7499999,10 0 0 1 -5.901452,3.40134 10,10 0 0 1 -0.639233,0.032 2.4999999,10 0 0 1 -0.04961,0.003 10,10 0 0 0 9.9937097,-9.87071 10,10 0 0 0 0.0062,-0.12919 z m -1.276932,0.6103 a 8.7499999,10 0 0 1 -0.04908,0.62735 10,2.4999999 0 0 1 -1.291405,0.44493 7.5,10 0 0 0 0.08424,-0.85318 10,1.2499999 0 0 0 1.256242,-0.2191 z m -5.03e-4,-1.21853 a 10,1.2499999 0 0 0 -1.254178,-0.22066 7.5,10 0 0 0 -0.08374,-0.85266 10,2.4999999 0 0 1 1.288811,0.44131 8.7499999,10 0 0 1 0.04911,0.63201 z m -0.138483,2.52336 a 8.7499999,10 0 0 1 -0.168487,0.78393 10,5 0 0 1 -1.422135,0.86713 7.5,10 0 0 0 0.240295,-0.98289 10,3.7499999 0 0 0 1.350327,-0.66817 z m -0.0021,-3.83181 a 10,3.7499999 0 0 0 -1.347205,-0.66973 7.5,10 0 0 0 -0.235638,-0.96997 10,5 0 0 1 1.416976,0.87075 8.7499999,10 0 0 1 0.165867,0.76895 z m -0.428387,5.51077 a 8.7499999,10 0 0 1 -0.475932,1.19838 10,7.5 0 0 1 -1.692937,1.20303 7.5,10 0 0 0 0.634603,-1.3224 10,6.2499999 0 0 0 1.534266,-1.07901 z m -0.0078,-7.20318 a 10,6.2499999 0 0 0 -1.521354,-1.06298 7.5,10 0 0 0 -0.629947,-1.3131 10,7.5 0 0 1 1.682089,1.20148 8.7499999,10 0 0 1 0.469212,1.1746 z m -1.583373,-2.98224 a 10,8.7499999 0 0 0 -1.770935,-1.08676 7.5,10 0 0 0 -4.20751,-2.28823 8.7499999,10 0 0 1 5.978445,3.37499 z m -0.343641,7.57008 a 6.2499999,10 0 0 1 -0.0925,0.99322 10,2.4999999 0 0 1 -1.25005,0.20981 5,10 0 0 0 0.09197,-1.09865 10,1.2499999 0 0 0 1.250579,-0.10438 z m -0.0031,-1.95595 a 10,1.2499999 0 0 0 -1.247484,-0.10646 5,10 0 0 0 -0.093,-1.09606 10,2.4999999 0 0 1 1.246955,0.20464 6.2499999,10 0 0 1 0.09353,0.99788 z m -0.25736,3.98373 a 6.2499999,10 0 0 1 -0.267679,1.10278 10,5 0 0 1 -1.227826,0.35811 5,10 0 0 0 0.249079,-1.16323 10,3.7499999 0 0 0 1.246426,-0.29766 z m -0.0015,-6.01307 a 10,3.7499999 0 0 0 -1.244891,-0.2992 5,10 0 0 0 -0.244951,-1.15756 10,5 0 0 1 1.22473,0.35915 6.2499999,10 0 0 1 0.265112,1.09761 z m -0.66249,8.2951 a 6.2499999,10 0 0 1 -0.622194,1.33687 10,7.5 0 0 1 -1.115695,0.37414 5,10 0 0 0 0.547767,-1.30741 10,6.2499999 0 0 0 1.190122,-0.4036 z m -0.0067,-10.58333 a 10,6.2499999 0 0 0 -1.178745,-0.39584 5,10 0 0 0 -0.542607,-1.30276 10,7.5 0 0 1 1.106911,0.37413 6.2499999,10 0 0 1 0.614441,1.32447 z m -1.565275,6.45439 a 3.7499999,10 0 0 1 -0.07959,1.16582 10,2.4999999 0 0 1 -1.219571,0.0971 2.4999999,10 0 0 0 0.0553,-1.21233 10,1.2499999 0 0 0 1.243859,-0.0506 z m -0.0021,-2.31873 a 10,1.2499999 0 0 0 -1.240737,-0.0501 2.4999999,10 0 0 0 -0.05736,-1.2144 10,2.4999999 0 0 1 1.220603,0.0956 3.7499999,10 0 0 1 0.0775,1.16892 z m -0.126074,-6.9944 a 10,8.7499999 0 0 0 -0.89453,-0.26148 5,10 0 0 0 -2.323888,-1.55495 6.2499999,10 0 0 1 3.218418,1.81643 z m -0.08424,4.64674 a 10,3.7499999 0 0 0 -1.184407,-0.1359 2.4999999,10 0 0 0 -0.143669,-1.23352 10,5 0 0 1 1.122415,0.16433 3.7499999,10 0 0 1 0.205661,1.20509 z m -0.0031,7.01663 a 3.7499999,10 0 0 1 -0.20103,1.20251 10,5 0 0 1 -1.126014,0.1633 2.4999999,10 0 0 0 0.148299,-1.233 10,3.7499999 0 0 0 1.178745,-0.13281 z m -0.500221,-9.46816 a 10,6.2499999 0 0 0 -1.034574,-0.16794 2.4999999,10 0 0 0 -0.289374,-1.25626 10,7.5 0 0 1 0.900191,0.14883 3.7499999,10 0 0 1 0.423757,1.27537 z m -5.29e-4,11.91556 a 3.7499999,10 0 0 1 -0.419603,1.27795 10,7.5 0 0 1 -0.904848,0.14987 2.4999999,10 0 0 0 0.293502,-1.26246 10,6.2499999 0 0 0 1.030949,-0.16536 z m -1.766808,-4.71858 a 1.2499999,10 0 0 1 -0.02998,1.24127 10,2.4999999 0 0 1 -1.2092257,0.0202 10,2.4999999 0 0 1 -1.210257,-0.0212 1.2499999,10 0 0 1 -0.028416,-1.23972 10,1.2499999 0 0 0 1.2386733,0.0108 10,1.2499999 0 0 0 1.2392024,-0.0114 z m -5.29e-4,-2.47788 a 10,1.2499999 0 0 0 -1.2386737,-0.0109 10,1.2499999 0 0 0 -1.2392025,0.0114 1.2499999,10 0 0 1 0.029977,-1.24127 10,2.4999999 0 0 1 1.2092252,-0.0202 10,2.4999999 0 0 1 1.210257,0.0212 1.2499999,10 0 0 1 0.02842,1.23972 z m -0.07959,-2.48306 a 10,3.7499999 0 0 0 -1.1590867,-0.0279 10,3.7499999 0 0 0 -1.1591131,0.03 1.2499999,10 0 0 1 0.075459,-1.24799 10,5 0 0 1 1.0836539,-0.0315 10,5 0 0 1 1.0831249,0.0315 1.2499999,10 0 0 1 0.07596,1.24592 z m 0,7.44244 a 1.2499999,10 0 0 1 -0.07543,1.24851 10,5 0 0 1 -1.0836537,0.0315 10,5 0 0 1 -1.0831512,-0.0315 1.2499999,10 0 0 1 -0.076465,-1.24644 10,3.7499999 0 0 0 1.1596158,0.0279 10,3.7499999 0 0 0 1.1590871,-0.03 z m -0.18034,-9.93892 a 10,6.2499999 0 0 0 -0.9787467,-0.031 10,6.2499999 0 0 0 -0.9777148,0.0341 1.2499999,10 0 0 1 0.1488282,-1.25264 10,7.5 0 0 1 0.8288866,-0.0315 10,7.5 0 0 1 0.8294157,0.0331 1.2499999,10 0 0 1 0.149331,1.24799 z m -0.0015,12.43489 a 1.2499999,10 0 0 1 -0.148325,1.25264 10,7.5 0 0 1 -0.8288867,0.0315 10,7.5 0 0 1 -0.8294158,-0.0331 1.2499999,10 0 0 1 -0.1493308,-1.24798 10,6.2499999 0 0 0 0.9787466,0.031 10,6.2499999 0 0 0 0.9772117,-0.0341 z m -1.3534227,3.75326 a 6.2499999,10 0 0 1 -3.2178889,-1.81591 10,8.7499999 0 0 0 0.8950325,0.262 5,10 0 0 0 2.3228564,1.55391 z m -0.2082536,-0.003 a 8.7499999,10 0 0 1 -5.9794774,-3.37602 10,8.7499999 0 0 0 1.7714648,1.08727 7.5,10 0 0 0 4.2080126,2.28875 z M 8.318347,279.61548 a 2.4999999,10 0 0 0 -0.2935288,1.26246 10,6.2499999 0 0 0 -1.0314516,0.16536 3.7499999,10 0 0 1 0.4201318,-1.27795 10,7.5 0 0 1 0.9048486,-0.14987 z m -5.027e-4,14.76758 a 10,7.5 0 0 1 -0.9007211,-0.14935 3.7499999,10 0 0 1 -0.4242593,-1.27485 10,6.2499999 0 0 0 1.0350764,0.16794 2.4999999,10 0 0 0 0.289904,1.25626 z M 7.8201895,282.12489 a 2.4999999,10 0 0 0 -0.148299,1.23249 10,3.7499999 0 0 0 -1.1787452,0.1328 3.7499999,10 0 0 1 0.201004,-1.20199 10,5 0 0 1 1.1260402,-0.1633 z m -0.00156,9.75238 a 10,5 0 0 1 -1.1229181,-0.16433 3.7499999,10 0 0 1 -0.2056606,-1.20613 10,3.7499999 0 0 0 1.1844073,0.13591 2.4999999,10 0 0 0 0.1441714,1.23455 z M 7.577302,289.42315 a 10,2.4999999 0 0 1 -1.2200731,-0.0951 3.7499999,10 0 0 1 -0.077523,-1.16892 10,1.2499999 0 0 0 1.2402343,0.0501 2.4999999,10 0 0 0 0.057362,1.21387 z m -5.027e-4,-4.84569 a 2.4999999,10 0 0 0 -0.055827,1.21232 10,1.2499999 0 0 0 -1.24333,0.0507 3.7499999,10 0 0 1 0.079587,-1.16582 10,2.4999999 0 0 1 1.2195704,-0.0971 z m -1.1337925,-4.57647 a 5,10 0 0 0 -0.5472377,1.30741 10,6.2499999 0 0 0 -1.1911542,0.40411 6.2499999,10 0 0 1 0.6221942,-1.33687 10,7.5 0 0 1 1.1161977,-0.37465 z m -0.00929,13.99346 a 10,7.5 0 0 1 -1.1064081,-0.37414 6.2499999,10 0 0 1 -0.6154473,-1.32498 10,6.2499999 0 0 0 1.1787187,0.39584 5,10 0 0 0 0.5431367,1.30328 z M 5.5365972,282.53262 a 5,10 0 0 0 -0.2495814,1.16375 10,3.7499999 0 0 0 -1.2459229,0.29714 6.2499999,10 0 0 1 0.2676789,-1.10226 10,5 0 0 1 1.2278254,-0.35863 z m -0.00413,8.93072 a 10,5 0 0 1 -1.2247298,-0.35915 6.2499999,10 0 0 1 -0.265086,-1.09813 10,3.7499999 0 0 0 1.2448646,0.29973 5,10 0 0 0 0.2449512,1.15755 z m -0.4082256,-2.28358 a 10,2.4999999 0 0 1 -1.2469548,-0.20464 6.2499999,10 0 0 1 -0.093557,-0.99787 10,1.2499999 0 0 0 1.247484,0.10645 5,10 0 0 0 0.093028,1.09606 z m -0.00156,-4.36098 a 5,10 0 0 0 -0.091466,1.09813 10,1.2499999 0 0 0 -1.2505796,0.10439 6.2499999,10 0 0 1 0.092498,-0.99323 10,2.4999999 0 0 1 1.2495476,-0.20929 z m -1.1084718,-3.8132 a 7.5,10 0 0 0 -0.6345767,1.3224 10,6.2499999 0 0 0 -1.5332339,1.07797 8.7499999,10 0 0 1 0.4754298,-1.19786 10,7.5 0 0 1 1.6923808,-1.20251 z m -0.00929,11.97963 a 10,7.5 0 0 1 -1.6810302,-1.20044 8.7499999,10 0 0 1 -0.4692385,-1.17461 10,6.2499999 0 0 0 1.5203223,1.06247 7.5,10 0 0 0 0.6299464,1.31258 z m -0.9994371,-9.55135 a 7.5,10 0 0 0 -0.2392627,0.9834 10,3.7499999 0 0 0 -1.350301,0.66766 8.7499999,10 0 0 1 0.1689894,-0.78445 10,5 0 0 1 1.4205743,-0.86661 z m -0.00516,7.12256 a 10,5 0 0 1 -1.4164469,-0.87023 8.7499999,10 0 0 1 -0.1658937,-0.76946 10,3.7499999 0 0 0 1.3467027,0.66972 7.5,10 0 0 0 0.2356379,0.96997 z m -0.3834342,-5.23844 a 7.5,10 0 0 0 -0.084243,0.85266 10,1.2499999 0 0 0 -1.255739,0.21911 8.7499999,10 0 0 1 0.049107,-0.62735 10,2.4999999 0 0 1 1.290875,-0.44442 z m -0.00206,3.3631 a 10,2.4999999 0 0 1 -1.2888119,-0.4408 8.7499999,10 0 0 1 -0.048577,-0.632 10,1.2499999 0 0 0 1.2536752,0.22066 7.5,10 0 0 0 0.083714,0.85214 z"
       id="path1012"
       inkscape:connector-curvature="0" />
  </g>
</svg>
