<?xml version="1.0" encoding="UTF-8" standalone="no"?>
<!DOCTYPE svg PUBLIC "-//W3C//DTD SVG 1.1//EN" "http://www.w3.org/Graphics/SVG/1.1/DTD/svg11.dtd">
<svg version="1.1" xmlns="http://www.w3.org/2000/svg" xmlns:xlink="http://www.w3.org/1999/xlink" preserveAspectRatio="xMidYMid meet" viewBox="0 0 320 450" width="320" height="450"><defs><path d="M0 0L320 0L320 450L0 450L0 0Z" id="d1AeNwmtsr"></path><path d="M224.81 120.52C224.81 157.97 193.53 188.38 155 188.38C116.47 188.38 85.19 157.97 85.19 120.52C85.19 83.07 116.47 52.66 155 52.66C193.53 52.66 224.81 83.07 224.81 120.52Z" id="b4LIlbQmrA"></path><path d="M94.94 198.77L102.08 205.26L108.57 209.16L118.96 214.35L126.1 216.3L135.19 217.6L142.34 217.6L151.43 215.65L165.06 211.1L178.05 207.21L190.39 203.96L202.08 200.71L209.22 200.06L219.61 200.06L230.65 200.06L239.74 200.71L248.18 208.51L255.32 216.3L260.52 224.09L263.77 230.58L267.66 243.57L269.61 254.61L270.91 263.05L272.21 276.69L273.51 286.43L274.16 293.57L276.1 309.16L276.75 316.3L278.7 326.69L279.35 337.08L280 348.12L280 357.21L279.35 366.3L276.75 375.39L271.56 384.48L265.71 391.62L258.57 398.77L252.73 403.31L244.94 408.51L238.44 411.75L221.56 416.3L212.47 416.3L201.43 416.3L183.9 413.7L172.86 413.05L165.06 413.05L157.27 413.05L142.99 413.05L135.84 412.4L127.4 412.4L116.36 412.4L107.92 410.45L100.13 409.16L89.74 403.31L81.3 394.22L75.45 383.83L72.21 376.04L68.96 368.25L65.06 357.86L62.47 343.57L61.17 335.78L60.52 322.79L61.82 313.7L65.06 304.61L69.61 295.52L73.51 289.03L80.65 276.69L86.49 267.6L89.74 261.1L93.64 250.06L93.64 242.27L94.29 234.48L94.29 226.04L94.29 217.6L93.64 209.81L93.64 202.66" id="a1QSg3ZwXw"></path></defs><g><g><g><use xlink:href="#d1AeNwmtsr" opacity="1" fill="#20989d" fill-opacity="1"></use></g><g><use xlink:href="#b4LIlbQmrA" opacity="1" fill="#2f2933" fill-opacity="1"></use></g><g><use xlink:href="#a1QSg3ZwXw" opacity="1" fill="#2f2933" fill-opacity="1"></use></g></g></g></svg>