<?xml version="1.0" encoding="UTF-8" standalone="no"?>
<!-- Created with Inkscape (http://www.inkscape.org/) -->

<svg
   xmlns:dc="http://purl.org/dc/elements/1.1/"
   xmlns:cc="http://creativecommons.org/ns#"
   xmlns:rdf="http://www.w3.org/1999/02/22-rdf-syntax-ns#"
   xmlns:svg="http://www.w3.org/2000/svg"
   xmlns="http://www.w3.org/2000/svg"
   xmlns:sodipodi="http://sodipodi.sourceforge.net/DTD/sodipodi-0.dtd"
   xmlns:inkscape="http://www.inkscape.org/namespaces/inkscape"
   width="20mm"
   height="20mm"
   viewBox="0 0 20 20"
   version="1.1"
   id="svg1084"
   inkscape:version="0.92.4 5da689c313, 2019-01-14"
   sodipodi:docname="Scratch.svg">
  <defs
     id="defs1078" />
  <sodipodi:namedview
     id="base"
     pagecolor="#ffffff"
     bordercolor="#666666"
     borderopacity="1.0"
     inkscape:pageopacity="0.0"
     inkscape:pageshadow="2"
     inkscape:zoom="5.6"
     inkscape:cx="19.282222"
     inkscape:cy="22.776636"
     inkscape:document-units="mm"
     inkscape:current-layer="layer1"
     showgrid="false"
     inkscape:window-width="1920"
     inkscape:window-height="1080"
     inkscape:window-x="0"
     inkscape:window-y="0"
     inkscape:window-maximized="1" />
  <metadata
     id="metadata1081">
    <rdf:RDF>
      <cc:Work
         rdf:about="">
        <dc:format>image/svg+xml</dc:format>
        <dc:type
           rdf:resource="http://purl.org/dc/dcmitype/StillImage" />
        <dc:title></dc:title>
      </cc:Work>
    </rdf:RDF>
  </metadata>
  <g
     inkscape:label="Ebene 1"
     inkscape:groupmode="layer"
     id="layer1"
     transform="translate(0,-277)">
    <path
       style="fill:#000000;fill-opacity:1;stroke:none;stroke-width:0.2564663px;stroke-linecap:butt;stroke-linejoin:miter;stroke-opacity:1"
       d="m 10.994001,277.1365 c -0.0786,-0.001 -0.151805,-4.9e-4 -0.220401,0.003 -1.2072911,0.0526 -0.9166666,0.72631 -0.9166666,0.72631 l -0.6151183,0.4859 c 0,0 -5.5375683,-0.0648 -5.5375683,5.73192 v 2.78505 l -0.842031,0.45333 0.129235,5.18144 c 0,0 -0.0647,4.56612 4.7280965,4.6309 4.7927967,0.0648 2.7204467,-1.4251 2.7204467,-1.42508 0,0 6.217406,0.22682 6.606011,-5.24604 0.388604,-5.47284 -0.58256,-3.7889 -0.58256,-3.7889 0,0 1.327799,-7.96659 -2.946858,-9.10004 -1.168851,-0.30992 -1.97239,-0.42848 -2.522586,-0.4373 z m 1.162113,2.80161 c 0.453372,-0.0324 2.20233,1.1334 2.169945,2.49352 -0.03238,1.36011 0.615439,3.27035 -0.712295,4.17709 0.971513,0.68007 1.392331,2.29973 1.262796,3.14171 -0.129535,0.84198 -0.420816,1.61902 -0.615118,1.91047 -0.194304,0.29145 -2.040196,3.14115 -5.1814212,2.20202 0.097151,0.32384 -0.3239693,1.13325 -1.7812385,1.16561 -1.4572692,0.0324 -2.0076248,-1.91041 -1.9104736,-4.85731 0.097151,-2.94696 -0.097421,-2.91477 1.5217669,-2.72047 -1.1010478,-0.42099 -1.3923568,-1.94263 -1.3599728,-3.07608 0.032384,-1.13343 2.2345216,-5.11674 4.6309202,-3.52993 0.161918,-0.5829 1.521718,-0.87427 1.975091,-0.90663 z m -0.679736,1.87789 -0.194353,1.68407 c 0,0 -1.3601508,-1.23074 -2.0402099,-1.23074 -0.6800588,0 -1.3276398,0.16214 -1.554326,2.81762 -0.2266865,2.65545 1.42459,2.88225 1.42459,2.88225 0,0 3.4651209,0.5503 2.1373869,2.36379 -1.3277344,1.81348 -2.8822412,-0.3887 -2.8822412,-0.3887 0,0 0.06479,-1.19805 -0.5505008,-1.26278 -0.6152914,-0.0648 -0.5503257,0.45332 -0.5179417,2.39634 0.032384,1.94306 0.420765,1.97558 0.420765,1.97558 0,0 0.7452055,0.0324 0.8099727,-1.84583 0,0 0.5176718,0.7447 2.039709,0.90663 1.522036,0.16191 1.975643,-1.23055 2.169945,-2.49352 0.194302,-1.26297 -1.036313,-2.49344 -2.040209,-2.75252 -1.0038975,-0.25906 -2.0076509,0.0321 -2.0076509,-2.36429 0,-2.3964 2.2991809,-0.0321 2.2991809,-0.0321 l 0.06462,1.58637 1.101002,0.29155 -0.06462,-4.40401 z"
       id="path1646"
       inkscape:connector-curvature="0" />
  </g>
</svg>
